<svg xmlns="http://www.w3.org/2000/svg" viewBox="0 0 26.172 31.786">
  <defs>
    <style>
      .cls-1 {
        fill: #6fd054;
      }
    </style>
  </defs>
  <g id="apricot" transform="translate(-45.213)">
    <g id="Group_312" data-name="Group 312" transform="translate(54.612 14.76)">
      <g id="Group_311" data-name="Group 311" transform="translate(0)">
        <path id="Path_404" data-name="Path 404" class="cls-1" d="M200.284,237.746c-5.181,1.9-4.619,7.528.02,8.794C204.7,245.372,205.728,239.943,200.284,237.746Z" transform="translate(-196.608 -237.746)"/>
      </g>
    </g>
    <g id="Group_314" data-name="Group 314" transform="translate(45.213)">
      <g id="Group_313" data-name="Group 313" transform="translate(0)">
        <path id="Path_405" data-name="Path 405" class="cls-1" d="M58.926,6.6c0-3.814-.055-3.367.129-3.17A7,7,0,0,0,63.6,5.591c2.1,0,3.718-1.271,5.134-2.8C67.32,1.271,65.7,0,63.6,0a7,7,0,0,0-4.546,2.162c-.184.2-.129.412-.129-1.231H57.064V6.522c-4.6-.449-9.026,1.41-10.882,5.793-1.709,4.038-1.3,11.628,2.416,16.018,2.493,2.942,6.216,4.415,9.707,2.764,5.475,2.588,12.936-2.277,13.079-13.3C71.5,8.984,65.143,5.684,58.926,6.6Zm-.621,18.86c-7.05-1.366-7.753-10.491.02-12.658C66.229,15.362,65.151,24.132,58.305,25.458Z" transform="translate(-45.213)"/>
      </g>
    </g>
  </g>
</svg>
