<svg xmlns="http://www.w3.org/2000/svg" width="21" height="25" viewBox="0 0 21 25">
  <g id="businessman" transform="translate(-37.758 0)">
    <g id="Group_577" data-name="Group 577" transform="translate(37.758 0)">
      <path id="Path_475" data-name="Path 475" d="M134.863,10.657a5.3,5.3,0,0,0,3.208,4.049,3.455,3.455,0,0,0,2.355-.005,5.4,5.4,0,0,0,3.219-4.044c.245-.021.567-.369.915-1.624.475-1.712-.031-1.967-.46-1.926a4.607,4.607,0,0,0,.184-.7c.725-4.439-1.42-4.59-1.42-4.59A3.341,3.341,0,0,0,141.571.592,4.3,4.3,0,0,0,138.92.02a3.9,3.9,0,0,0-1.058.2h0A4.616,4.616,0,0,0,136.7.832a6.133,6.133,0,0,0-1.2,1.01,4.965,4.965,0,0,0-1.293,2.311,5.107,5.107,0,0,0,.01,2.259h0a4.454,4.454,0,0,0,.184.7c-.429-.042-.935.213-.46,1.926C134.3,10.288,134.618,10.636,134.863,10.657Z" transform="translate(-128.756 0)" fill="#6fd054"/>
      <path id="Path_476" data-name="Path 476" d="M56.758,276.67a16.279,16.279,0,0,1-4.773-2.2l-1.67,5.334-.314,1L50,280.8l-.273.853-.881-2.524c2.165-3.05-.438-3.018-.582-3.013s-2.747-.036-.582,3.013l-.881,2.524-.273-.853-.005.016-.314-1-1.675-5.334a16.279,16.279,0,0,1-4.773,2.2c-1.964.5-2.056,2.795-1.979,3.924,0,0,.113,1.535.227,2.212a20,20,0,0,0,10.256,2.519,19.938,19.938,0,0,0,10.256-2.519c.113-.677.227-2.212.227-2.212C58.814,279.465,58.721,277.175,56.758,276.67Z" transform="translate(-37.758 -260.325)" fill="#6fd054"/>
    </g>
  </g>
</svg>
