<svg xmlns="http://www.w3.org/2000/svg" width="22" height="22" viewBox="0 0 22 22">
  <path id="cancel" d="M14.164,11.352a.486.486,0,0,1,0-.7L21.7,3.114a1.085,1.085,0,0,0,.3-.7,1.085,1.085,0,0,0-.3-.7L20.292.3a1.085,1.085,0,0,0-.7-.3.912.912,0,0,0-.7.3L11.352,7.836a.486.486,0,0,1-.7,0L3.114.3a1.085,1.085,0,0,0-.7-.3,1.085,1.085,0,0,0-.7.3L.3,1.708a1.085,1.085,0,0,0-.3.7,1.085,1.085,0,0,0,.3.7l7.534,7.534a.486.486,0,0,1,0,.7L.3,18.886a.971.971,0,0,0,0,1.406L1.708,21.7a1.085,1.085,0,0,0,.7.3,1.085,1.085,0,0,0,.7-.3l7.534-7.534a.486.486,0,0,1,.7,0L18.886,21.7a.971.971,0,0,0,1.406,0L21.7,20.292a.971.971,0,0,0,0-1.406Z"/>
</svg>
