<svg xmlns="http://www.w3.org/2000/svg" width="19" height="28" viewBox="0 0 19 28">
  <g id="family-group-of-three" transform="translate(-80.571 -0.001)">
    <g id="Group_563" data-name="Group 563" transform="translate(80.571 0.001)">
      <path id="Path_462" data-name="Path 462" d="M326.171,212.73a1.659,1.659,0,1,0,1.309-.753A1.662,1.662,0,0,0,326.171,212.73Z" transform="translate(-311.678 -199.86)" fill="#6fd054"/>
      <path id="Path_463" data-name="Path 463" d="M409.075,339.663c0,.091,0-.091,0,0Z" transform="translate(-390.081 -320.22)" fill="#6fd054"/>
      <path id="Path_464" data-name="Path 464" d="M125.37,42.824a2.719,2.719,0,1,0-1.423-2.609A2.722,2.722,0,0,0,125.37,42.824Z" transform="translate(-121.453 -35.551)" fill="#6fd054"/>
      <path id="Path_465" data-name="Path 465" d="M215.352,4.947a2.839,2.839,0,0,0,4.157-3.832,2.839,2.839,0,0,0-4.986.941A2.865,2.865,0,0,0,215.352,4.947Z" transform="translate(-206.649 -0.001)" fill="#6fd054"/>
      <g id="Group_562" data-name="Group 562" transform="translate(7.404 5.904)">
        <path id="Path_466" data-name="Path 466" d="M305.631,276.985a.492.492,0,0,0,.982-.049c0-.147,0-.292-.006-.438a3.889,3.889,0,0,0-.177-1.026,4.4,4.4,0,0,0-.338-.816,4.7,4.7,0,0,0-1.427-1.6,2.161,2.161,0,0,0-.442-.259,1.863,1.863,0,0,0-1.776.176,4.4,4.4,0,0,0-.384.28,4.728,4.728,0,0,0-.771.791,4.351,4.351,0,0,0-.815,1.747,5.38,5.38,0,0,0-.1,1.144.492.492,0,0,0,.982.049,3.525,3.525,0,0,1,.487-1.552v.532l-1.1,4.425c-.049.191-.082.388.291.388h.91l.169,3.695a.575.575,0,0,0,1.148.005l.2-3.7h.061l.169,3.695a.575.575,0,0,0,1.148.005l.2-3.7h.89a.325.325,0,0,0,.319-.389l-1.113-4.441v-.5A3.424,3.424,0,0,1,305.631,276.985Z" transform="translate(-295.017 -262.982)" fill="#6fd054"/>
        <path id="Path_467" data-name="Path 467" d="M212.3,121.925l.378-1.636.051-1.015a1.08,1.08,0,0,1-.817-1.04,5.694,5.694,0,0,1,.133-1.348,5.054,5.054,0,0,1,.487-1.269,4.865,4.865,0,0,1,.449-.676,5.085,5.085,0,0,0,.017-.558v-4.74a8.85,8.85,0,0,1,.545,1.613,2.126,2.126,0,0,1,1.8-1.23,11.612,11.612,0,0,0-.616-1.791,8.809,8.809,0,0,0-1.154-1.893,7.779,7.779,0,0,0-1.019-1.037,6.319,6.319,0,0,0-.566-.422,4.363,4.363,0,0,0-.522-.29,3.1,3.1,0,0,0-3.378.585l-1.192,1.059a8.316,8.316,0,0,1,2.523,2.85,7.522,7.522,0,0,1,.793,2.327,9.626,9.626,0,0,1,.112,1.657,1.412,1.412,0,0,1-1.408,1.384,1.4,1.4,0,0,1-.334-.043s1.045,3.812,1.1,4.055c.08.33.107,1.015-.656,1.015h-1.267l-.1,1.711.174,4.178a.983.983,0,0,0,1.965.008l.353-7,.292,6.992a.983.983,0,0,0,1.965.008l.154-3.041A.3.3,0,0,1,212.3,121.925Z" transform="translate(-206.896 -104.305)" fill="#6fd054"/>
      </g>
      <path id="Path_468" data-name="Path 468" d="M89.8,148.652a.486.486,0,0,0,.376-.177.462.462,0,0,0,.1-.406L88.4,141.253v-1.079a4.908,4.908,0,0,1,.594,1.387,7.377,7.377,0,0,1,.195,1.141.807.807,0,0,0,1.609-.08c0-.259,0-.516-.013-.775a6.889,6.889,0,0,0-.145-1.059,7.052,7.052,0,0,0-.789-2.072,7.748,7.748,0,0,0-2.2-2.42,4.312,4.312,0,0,0-.7-.429l-.067-.028a2.727,2.727,0,0,0-2.354-.012,3.184,3.184,0,0,0-.73.416,7.746,7.746,0,0,0-2.217,2.376,6.9,6.9,0,0,0-.495,1,6.279,6.279,0,0,0-.327,1.052,10.052,10.052,0,0,0-.162,1.075,8.38,8.38,0,0,0-.019.862s0,.008,0,.011a.807.807,0,0,0,1.609.08,7.416,7.416,0,0,1,.195-1.141,5.056,5.056,0,0,1,.6-1.4v1.012l-1.885,6.9a.488.488,0,0,0,.479.582h1.569l.287,6.32a.942.942,0,0,0,1.881.009l.347-6.328h.079l.287,6.32a.942.942,0,0,0,1.881.009l.347-6.328H89.8Z" transform="translate(-80.571 -127.87)" fill="#6fd054"/>
    </g>
  </g>
</svg>
