<svg id="fields" xmlns="http://www.w3.org/2000/svg" viewBox="0 0 25 25">
  <defs>
    <style>
      .cls-1 {
        fill: #6fd054;
      }
    </style>
  </defs>
  <g id="Group_4" data-name="Group 4">
    <g id="Group_3" data-name="Group 3">
      <path id="Path_6" data-name="Path 6" class="cls-1" d="M82.283,438.944l.155,0a50.172,50.172,0,0,0-9.073-3.748A12.462,12.462,0,0,0,82.283,438.944Z" transform="translate(-69.783 -413.944)"/>
      <path id="Path_7" data-name="Path 7" class="cls-1" d="M4.967,306.264a12.4,12.4,0,0,0,.332,1.295,52.606,52.606,0,0,1,11.433,3.8,52.018,52.018,0,0,1,6.32,3.5,12.528,12.528,0,0,0,1.168-.7,50.358,50.358,0,0,0-18.19-7.691Q5.5,306.362,4.967,306.264Z" transform="translate(-4.724 -291.31)"/>
      <path id="Path_8" data-name="Path 8" class="cls-1" d="M395.683,217.443h-4.714a5.211,5.211,0,0,1-1.108,1.7v1.4q1.3-.233,2.614-.4,1.663-.21,3.339-.311c.007-.167.011-.334.011-.5A12.565,12.565,0,0,0,395.683,217.443Z" transform="translate(-370.825 -206.826)"/>
      <path id="Path_9" data-name="Path 9" class="cls-1" d="M284.857,217.446h-1.442a5.3,5.3,0,0,1-.356,1.534,4.2,4.2,0,0,1-.845,1.366v1.416h0q1.862-.534,3.754-.93c0-.024,0-.049,0-.073v-1.615A5.216,5.216,0,0,1,284.857,217.446Z" transform="translate(-268.435 -206.829)"/>
      <path id="Path_10" data-name="Path 10" class="cls-1" d="M10,223q1.13-.418,2.277-.784v-1.873a4.2,4.2,0,0,1-.845-1.366,5.3,5.3,0,0,1-.356-1.534H.142A12.554,12.554,0,0,0,0,219.327c0,.3.011.593.032.885q.793.14,1.581.3A52.815,52.815,0,0,1,10,223Z" transform="translate(0 -206.827)"/>
      <path id="Path_11" data-name="Path 11" class="cls-1" d="M20.513,8.343A3.989,3.989,0,0,1,21.665,6.5a.753.753,0,0,1,.921,0,3.99,3.99,0,0,1,1.151,1.842,7.141,7.141,0,0,1,.213.769h1.126a6.031,6.031,0,0,1-.1-1.048,8.481,8.481,0,0,1,.468-2.59,5.172,5.172,0,0,1,1.476-2.379.753.753,0,0,1,.921,0,5.172,5.172,0,0,1,1.476,2.379,8.476,8.476,0,0,1,.468,2.59,6.025,6.025,0,0,1-.1,1.048h3.945a12.5,12.5,0,0,0-24.066,0H20.3A7.146,7.146,0,0,1,20.513,8.343Z" transform="translate(-9.098)"/>
      <path id="Path_12" data-name="Path 12" class="cls-1" d="M378.82,405.222a12.61,12.61,0,0,0,1.982-2.208q-2.182.237-4.346.664Q377.658,404.418,378.82,405.222Z" transform="translate(-358.074 -383.336)"/>
      <path id="Path_13" data-name="Path 13" class="cls-1" d="M26.261,368.69a52.462,52.462,0,0,1,8.924,3.211q2.2,1.027,4.3,2.26a12.4,12.4,0,0,0,1.472-.422A50.329,50.329,0,0,0,25.535,367.4,12.5,12.5,0,0,0,26.261,368.69Z" transform="translate(-24.288 -349.456)"/>
      <path id="Path_14" data-name="Path 14" class="cls-1" d="M248.433,300.223l.223.106a55.383,55.383,0,0,1,11.278-2.053q.13-.515.216-1.047a50.424,50.424,0,0,0-12.757,2.524Q247.916,299.984,248.433,300.223Z" transform="translate(-235.314 -282.717)"/>
      <path id="Path_15" data-name="Path 15" class="cls-1" d="M315.661,352.552a52.078,52.078,0,0,1,7.229-1.143q.235-.469.431-.96a53.777,53.777,0,0,0-8.759,1.508Q315.115,352.248,315.661,352.552Z" transform="translate(-299.203 -333.337)"/>
    </g>
  </g>
</svg>
