<svg xmlns="http://www.w3.org/2000/svg" viewBox="0 0 22 21.039">
  <defs>
    <style>
      .cls-1 {
        fill: #6fd054;
      }
    </style>
  </defs>
  <path id="star" class="cls-1" d="M12.063,1.707l2.481,5.028a1.184,1.184,0,0,0,.892.648l5.549.806a1.185,1.185,0,0,1,.657,2.021l-4.015,3.914a1.185,1.185,0,0,0-.341,1.049l.948,5.526a1.185,1.185,0,0,1-1.719,1.249l-4.963-2.609a1.186,1.186,0,0,0-1.1,0L5.487,21.947A1.185,1.185,0,0,1,3.768,20.7l.948-5.526a1.185,1.185,0,0,0-.341-1.049L.36,10.21a1.185,1.185,0,0,1,.657-2.021l5.549-.806a1.184,1.184,0,0,0,.892-.648L9.938,1.707A1.184,1.184,0,0,1,12.063,1.707Z" transform="translate(0 -1.047)"/>
</svg>
