<svg id="instagram-logo" xmlns="http://www.w3.org/2000/svg" viewBox="0 0 17 17">
  <defs>
    <style>
      .cls-1 {
        fill: #fff;
      }
    </style>
  </defs>
  <path id="Shape" class="cls-1" d="M12.308,17H4.692A4.7,4.7,0,0,1,0,12.308V4.692A4.7,4.7,0,0,1,4.692,0h7.617A4.7,4.7,0,0,1,17,4.692v7.617A4.7,4.7,0,0,1,12.308,17ZM4.692,1.508A3.187,3.187,0,0,0,1.508,4.692v7.617a3.187,3.187,0,0,0,3.183,3.183h7.617a3.187,3.187,0,0,0,3.183-3.183V4.692a3.187,3.187,0,0,0-3.183-3.183Z"/>
  <path id="Shape-2" data-name="Shape" class="cls-1" d="M4.25,8.5A4.25,4.25,0,1,1,8.5,4.25,4.255,4.255,0,0,1,4.25,8.5Zm0-7.036A2.786,2.786,0,1,0,7.036,4.25,2.79,2.79,0,0,0,4.25,1.463Z" transform="translate(3.967 3.967)"/>
  <path id="Shape-3" data-name="Shape" class="cls-1" d="M1.133,0a1.133,1.133,0,0,0-.8,1.935,1.133,1.133,0,0,0,1.6,0A1.133,1.133,0,0,0,1.133,0Z" transform="translate(11.9 2.833)"/>
</svg>
