<svg id="Group_549" data-name="Group 549" xmlns="http://www.w3.org/2000/svg" viewBox="0 0 478.922 263.815">
  <defs>
    <style>
      .cls-1 {
        fill: none;
        opacity: 0.2;
      }

      .cls-2 {
        fill: #94d75b;
      }

      .cls-3 {
        fill: #71be63;
      }

      .cls-4 {
        fill: #43ab5f;
      }

      .cls-5 {
        fill: #3c9b61;
      }

      .cls-6 {
        fill: #388253;
      }

      .cls-7 {
        fill: #c0f492;
      }

      .cls-8 {
        fill: #b0eb81;
      }

      .cls-9 {
        fill: #acef6a;
      }
    </style>
  </defs>
  <g id="Group_475" data-name="Group 475" transform="translate(416.06 85.813)">
    <g id="Group_474" data-name="Group 474">
      <rect id="Rectangle_66" data-name="Rectangle 66" class="cls-1" width="62.734" height="79.82"/>
      <g id="Group_473" data-name="Group 473" transform="translate(4.374 4.346)">
        <path id="Path_409" data-name="Path 409" class="cls-2" d="M836.484,169.7c10.626,73.9-37.668,63.223-37.668,63.223S766.46,195.574,836.484,169.7Z" transform="translate(-791.352 -169.7)"/>
      </g>
    </g>
    <path id="Path_410" data-name="Path 410" class="cls-3" d="M843.068,169.7,805.4,232.923S853.694,243.6,843.068,169.7Z" transform="translate(-793.563 -165.354)"/>
  </g>
  <g id="Group_478" data-name="Group 478" transform="translate(356.259 100.859)">
    <g id="Group_477" data-name="Group 477">
      <rect id="Rectangle_67" data-name="Rectangle 67" class="cls-1" width="122.663" height="113.61"/>
      <g id="Group_476" data-name="Group 476" transform="translate(4.272 4.335)">
        <path id="Path_411" data-name="Path 411" class="cls-2" d="M678.6,198c138.134,5.472,102.485,89.787,102.485,89.787S702.083,334.275,678.6,198Z" transform="translate(-678.6 -198)"/>
      </g>
    </g>
    <path id="Path_412" data-name="Path 412" class="cls-3" d="M678.6,198l102.485,89.787C781.032,287.787,816.734,203.472,678.6,198Z" transform="translate(-674.328 -193.665)"/>
  </g>
  <g id="Group_481" data-name="Group 481" transform="translate(268.278 70.895)">
    <g id="Group_480" data-name="Group 480">
      <rect id="Rectangle_68" data-name="Rectangle 68" class="cls-1" width="64.647" height="94.739"/>
      <g id="Group_479" data-name="Group 479" transform="translate(4.389 4.335)">
        <path id="Path_413" data-name="Path 413" class="cls-3" d="M522.348,141.6c69.917,46.062,25.023,78.63,25.023,78.63S491.905,219.593,522.348,141.6Z" transform="translate(-513.221 -141.6)"/>
      </g>
    </g>
    <path id="Path_414" data-name="Path 414" class="cls-4" d="M530.4,141.6l25.024,78.63S600.317,187.662,530.4,141.6Z" transform="translate(-516.884 -137.265)"/>
  </g>
  <g id="Group_484" data-name="Group 484" transform="translate(185.652)">
    <g id="Group_483" data-name="Group 483">
      <rect id="Rectangle_69" data-name="Rectangle 69" class="cls-1" width="39.528" height="57.634"/>
      <g id="Group_482" data-name="Group 482" transform="translate(4.272 4.25)">
        <path id="Path_415" data-name="Path 415" class="cls-3" d="M368.117,8c27.946,31.558,1.859,41.493,1.859,41.493S343.147,41.949,368.117,8Z" transform="translate(-357.481 -8)"/>
      </g>
    </g>
    <path id="Path_416" data-name="Path 416" class="cls-4" d="M377.5,8l1.859,41.493S405.446,39.558,377.5,8Z" transform="translate(-362.592 -3.75)"/>
  </g>
  <g id="Group_487" data-name="Group 487" transform="translate(197.383 25.629)">
    <g id="Group_486" data-name="Group 486">
      <rect id="Rectangle_70" data-name="Rectangle 70" class="cls-1" width="44.5" height="41.823"/>
      <g id="Group_485" data-name="Group 485" transform="translate(4.311 4.282)">
        <path id="Path_417" data-name="Path 417" class="cls-5" d="M407.88,56.3c-6.216,36.127-27.149,23.8-27.149,23.8S371.275,57.788,407.88,56.3Z" transform="translate(-379.634 -56.3)"/>
      </g>
    </g>
    <path id="Path_418" data-name="Path 418" class="cls-6" d="M408.849,56.3,381.7,80.1S402.633,92.427,408.849,56.3Z" transform="translate(-376.292 -52.018)"/>
  </g>
  <g id="Group_539" data-name="Group 539" transform="translate(0 18.744)">
    <g id="Group_490" data-name="Group 490" transform="translate(198.403 44.755)">
      <g id="Group_489" data-name="Group 489">
        <rect id="Rectangle_71" data-name="Rectangle 71" class="cls-1" width="94.356" height="128.784"/>
        <g id="Group_488" data-name="Group 488" transform="translate(4.294 4.346)">
          <path id="Path_419" data-name="Path 419" class="cls-7" d="M386.345,127.7c117.733,51.216,58.441,112.261,58.441,112.261S360.844,253.561,386.345,127.7Z" transform="translate(-381.523 -127.7)"/>
        </g>
      </g>
      <path id="Path_420" data-name="Path 420" class="cls-8" d="M390.6,127.7l58.441,112.261S508.333,178.916,390.6,127.7Z" transform="translate(-381.483 -123.354)"/>
    </g>
    <g id="Group_493" data-name="Group 493" transform="translate(326.677 56.486)">
      <g id="Group_492" data-name="Group 492">
        <rect id="Rectangle_72" data-name="Rectangle 72" class="cls-1" width="54.829" height="72.042"/>
        <g id="Group_491" data-name="Group 491" transform="translate(4.32 4.357)">
          <path id="Path_421" data-name="Path 421" class="cls-7" d="M659.292,149.8c12.751,62.32-28.849,55.679-28.849,55.679S601.01,175.3,659.292,149.8Z" transform="translate(-623.011 -149.8)"/>
        </g>
      </g>
      <path id="Path_422" data-name="Path 422" class="cls-8" d="M665.849,149.8,637,205.479S678.6,212.12,665.849,149.8Z" transform="translate(-625.248 -145.443)"/>
    </g>
    <g id="Group_496" data-name="Group 496" transform="translate(140.004 30.092)">
      <g id="Group_495" data-name="Group 495">
        <rect id="Rectangle_73" data-name="Rectangle 73" class="cls-1" width="79.82" height="89.511"/>
        <g id="Group_494" data-name="Group 494" transform="translate(4.346 4.293)">
          <path id="Path_423" data-name="Path 423" class="cls-8" d="M271.7,100c91.009,19.126,57.857,71.033,57.857,71.033S271.966,192.975,271.7,100Z" transform="translate(-271.7 -100)"/>
        </g>
      </g>
      <path id="Path_424" data-name="Path 424" class="cls-2" d="M271.7,100l57.857,71.086C329.557,171.033,362.709,119.126,271.7,100Z" transform="translate(-267.354 -95.707)"/>
    </g>
    <g id="Group_499" data-name="Group 499" transform="translate(300.283 113.738)">
      <g id="Group_498" data-name="Group 498">
        <rect id="Rectangle_74" data-name="Rectangle 74" class="cls-1" width="141.407" height="92.444"/>
        <g id="Group_497" data-name="Group 497" transform="translate(4.303 4.339)">
          <path id="Path_425" data-name="Path 425" class="cls-8" d="M698.577,273.345C623.347,382.471,573.3,310.322,573.3,310.322S576.116,222.554,698.577,273.345Z" transform="translate(-573.3 -257.526)"/>
        </g>
      </g>
      <path id="Path_426" data-name="Path 426" class="cls-2" d="M698.577,287.3,573.3,324.277S623.347,396.479,698.577,287.3Z" transform="translate(-568.997 -267.143)"/>
    </g>
    <g id="Group_502" data-name="Group 502" transform="translate(106.087 57.379)">
      <g id="Group_501" data-name="Group 501">
        <rect id="Rectangle_75" data-name="Rectangle 75" class="cls-1" width="85.431" height="112.462"/>
        <g id="Group_500" data-name="Group 500" transform="translate(4.35 4.261)">
          <path id="Path_427" data-name="Path 427" class="cls-4" d="M210.754,151.3c104.132,40.7,54.563,95.738,54.563,95.738S192.69,261.648,210.754,151.3Z" transform="translate(-207.867 -151.3)"/>
        </g>
      </g>
      <path id="Path_428" data-name="Path 428" class="cls-5" d="M213.3,151.3l54.563,95.738S317.432,192,213.3,151.3Z" transform="translate(-206.064 -147.039)"/>
    </g>
    <g id="Group_505" data-name="Group 505" transform="translate(0 129.676)">
      <g id="Group_504" data-name="Group 504">
        <rect id="Rectangle_76" data-name="Rectangle 76" class="cls-1" width="115.65" height="72.807"/>
        <g id="Group_503" data-name="Group 503" transform="translate(4.303 4.325)">
          <path id="Path_429" data-name="Path 429" class="cls-4" d="M8.1,315.764c78.63-63.595,99.669,0,99.669,0S86.73,379.359,8.1,315.764Z" transform="translate(-8.1 -287.5)"/>
        </g>
      </g>
      <path id="Path_430" data-name="Path 430" class="cls-5" d="M8.1,315.764h99.669S86.73,252.17,8.1,315.764Z" transform="translate(-3.797 -283.175)"/>
    </g>
    <g id="Group_508" data-name="Group 508" transform="translate(122.791 105.577)">
      <g id="Group_507" data-name="Group 507">
        <rect id="Rectangle_77" data-name="Rectangle 77" class="cls-1" width="70.767" height="108.765"/>
        <g id="Group_506" data-name="Group 506" transform="translate(4.302 4.25)">
          <path id="Path_431" data-name="Path 431" class="cls-2" d="M278.47,242c43.565,85.749-19.764,92.709-19.764,92.709S203.718,302.513,278.47,242Z" transform="translate(-239.216 -242)"/>
        </g>
      </g>
      <path id="Path_432" data-name="Path 432" class="cls-3" d="M295.664,242,275.9,334.709S339.229,327.8,295.664,242Z" transform="translate(-252.109 -237.75)"/>
    </g>
    <g id="Group_511" data-name="Group 511" transform="translate(37.998 84.411)">
      <g id="Group_510" data-name="Group 510">
        <rect id="Rectangle_78" data-name="Rectangle 78" class="cls-1" width="115.14" height="106.597"/>
        <g id="Group_509" data-name="Group 509" transform="translate(4.293 4.378)">
          <path id="Path_433" data-name="Path 433" class="cls-2" d="M79.6,202.4c128.305,5.047,95.153,83.412,95.153,83.412S101.436,328.952,79.6,202.4Z" transform="translate(-79.6 -202.4)"/>
        </g>
      </g>
      <path id="Path_434" data-name="Path 434" class="cls-3" d="M79.6,202.4l95.153,83.412S207.905,207.447,79.6,202.4Z" transform="translate(-75.307 -198.022)"/>
    </g>
    <g id="Group_514" data-name="Group 514" transform="translate(12.113 53.044)">
      <g id="Group_513" data-name="Group 513">
        <rect id="Rectangle_79" data-name="Rectangle 79" class="cls-1" width="43.99" height="36.212"/>
        <g id="Group_512" data-name="Group 512" transform="translate(4.357 4.375)">
          <path id="Path_435" data-name="Path 435" class="cls-2" d="M31,144.122c31.983-4.994,27.574,15.992,27.574,15.992S42.529,174.352,31,144.122Z" transform="translate(-31 -143.354)"/>
        </g>
      </g>
      <path id="Path_436" data-name="Path 436" class="cls-3" d="M31,144.122l27.574,15.992S62.983,139.128,31,144.122Z" transform="translate(-26.643 -138.979)"/>
    </g>
    <g id="Group_517" data-name="Group 517" transform="translate(313.543 19.764)">
      <g id="Group_516" data-name="Group 516">
        <rect id="Rectangle_80" data-name="Rectangle 80" class="cls-1" width="42.46" height="59.546"/>
        <g id="Group_515" data-name="Group 515" transform="translate(4.285 4.367)">
          <path id="Path_437" data-name="Path 437" class="cls-2" d="M619.144,80.7c17.479,42.4-12.857,43.3-12.857,43.3S581.37,106.68,619.144,80.7Z" transform="translate(-598.225 -80.7)"/>
        </g>
      </g>
      <path id="Path_438" data-name="Path 438" class="cls-3" d="M626.257,80.7,613.4,124S643.736,123.1,626.257,80.7Z" transform="translate(-601.053 -76.333)"/>
    </g>
    <g id="Group_520" data-name="Group 520" transform="translate(51.258)">
      <g id="Group_519" data-name="Group 519">
        <rect id="Rectangle_81" data-name="Rectangle 81" class="cls-1" width="57.506" height="79.31"/>
        <g id="Group_518" data-name="Group 518" transform="translate(4.336 4.261)">
          <path id="Path_439" data-name="Path 439" class="cls-2" d="M109.294,43.3c61.523,32.674,26.883,63.17,26.883,63.17S90.168,110.3,109.294,43.3Z" transform="translate(-104.64 -43.3)"/>
        </g>
      </g>
      <path id="Path_440" data-name="Path 440" class="cls-3" d="M113.4,43.3l26.883,63.17S174.923,75.974,113.4,43.3Z" transform="translate(-104.411 -39.039)"/>
    </g>
    <g id="Group_523" data-name="Group 523" transform="translate(245.199 92.444)">
      <g id="Group_522" data-name="Group 522">
        <rect id="Rectangle_82" data-name="Rectangle 82" class="cls-1" width="81.605" height="117.053"/>
        <g id="Group_521" data-name="Group 521" transform="translate(4.309 4.314)">
          <path id="Path_441" data-name="Path 441" class="cls-9" d="M527.205,217.4c31.505,106.257-41.759,100.944-41.759,100.944S429.821,270.422,527.205,217.4Z" transform="translate(-469.63 -217.4)"/>
        </g>
      </g>
      <path id="Path_442" data-name="Path 442" class="cls-2" d="M541.159,217.4,499.4,318.344S572.611,323.71,541.159,217.4Z" transform="translate(-479.275 -213.086)"/>
    </g>
    <g id="Group_526" data-name="Group 526" transform="translate(304.49 91.424)">
      <g id="Group_525" data-name="Group 525">
        <rect id="Rectangle_83" data-name="Rectangle 83" class="cls-1" width="89.638" height="67.707"/>
        <g id="Group_524" data-name="Group 524" transform="translate(4.39 4.348)">
          <path id="Path_443" data-name="Path 443" class="cls-3" d="M654.922,218.443c-32.887,77.515-73.211,39.049-73.211,39.049S572.254,202.5,654.922,218.443Z" transform="translate(-581.383 -215.544)"/>
        </g>
      </g>
      <path id="Path_444" data-name="Path 444" class="cls-4" d="M655.211,221,582,260.049S622.325,298.515,655.211,221Z" transform="translate(-577.282 -213.753)"/>
    </g>
    <g id="Group_529" data-name="Group 529" transform="translate(216.892 10.966)">
      <g id="Group_528" data-name="Group 528">
        <rect id="Rectangle_84" data-name="Rectangle 84" class="cls-1" width="55.084" height="81.095"/>
        <g id="Group_527" data-name="Group 527" transform="translate(4.337 4.346)">
          <path id="Path_445" data-name="Path 445" class="cls-5" d="M446.313,64.1c27.786,62.214-17.267,64.87-17.267,64.87S391.272,104.265,446.313,64.1Z" transform="translate(-416.404 -64.1)"/>
        </g>
      </g>
      <path id="Path_446" data-name="Path 446" class="cls-6" d="M457.467,64.1,440.2,128.97C440.2,129.023,485.253,126.314,457.467,64.1Z" transform="translate(-423.22 -59.754)"/>
    </g>
    <g id="Group_532" data-name="Group 532" transform="translate(0.51 92.826)">
      <g id="Group_531" data-name="Group 531">
        <rect id="Rectangle_85" data-name="Rectangle 85" class="cls-1" width="67.069" height="46.541"/>
        <g id="Group_530" data-name="Group 530" transform="translate(4.325 4.345)">
          <path id="Path_447" data-name="Path 447" class="cls-5" d="M9.1,225.734c48.347-22.58,51,12.645,51,12.645S41.3,268.29,9.1,225.734Z" transform="translate(-9.1 -218.179)"/>
        </g>
      </g>
      <path id="Path_448" data-name="Path 448" class="cls-6" d="M9.1,225.734l51,12.645S57.447,203.155,9.1,225.734Z" transform="translate(-4.775 -213.833)"/>
    </g>
    <g id="Group_535" data-name="Group 535" transform="translate(37.232 141.662)">
      <g id="Group_534" data-name="Group 534">
        <rect id="Rectangle_86" data-name="Rectangle 86" class="cls-1" width="81.605" height="57.761"/>
        <g id="Group_533" data-name="Group 533" transform="translate(4.261 4.293)">
          <path id="Path_449" data-name="Path 449" class="cls-5" d="M78.1,316c67.526-22.314,65.561,24.758,65.561,24.758S114.068,377.42,78.1,316Z" transform="translate(-78.1 -310)"/>
        </g>
      </g>
      <path id="Path_450" data-name="Path 450" class="cls-6" d="M78.1,316l65.561,24.758C143.714,340.761,145.68,293.689,78.1,316Z" transform="translate(-73.839 -305.707)"/>
    </g>
    <g id="Group_538" data-name="Group 538" transform="translate(40.038 33.535)">
      <g id="Group_537" data-name="Group 537" transform="translate(0 0)">
        <rect id="Rectangle_87" data-name="Rectangle 87" class="cls-1" width="43.608" height="44.373"/>
        <g id="Group_536" data-name="Group 536" transform="translate(4.325 4.25)">
          <path id="Path_451" data-name="Path 451" class="cls-4" d="M83.5,106.4c37.456,4.994,25.608,26.989,25.608,26.989S86.422,144.068,83.5,106.4Z" transform="translate(-83.5 -106.4)"/>
        </g>
      </g>
      <path id="Path_452" data-name="Path 452" class="cls-5" d="M83.5,106.4l25.608,26.989S120.9,111.394,83.5,106.4Z" transform="translate(-79.175 -102.15)"/>
    </g>
  </g>
  <g id="Group_542" data-name="Group 542" transform="translate(378.7 56.741)">
    <g id="Group_541" data-name="Group 541">
      <rect id="Rectangle_88" data-name="Rectangle 88" class="cls-1" width="71.787" height="114.248"/>
      <g id="Group_540" data-name="Group 540" transform="translate(4.28 4.303)">
        <path id="Path_453" data-name="Path 453" class="cls-2" d="M748.719,114.9c62.692,77.461,0,98.182,0,98.182S686.027,192.361,748.719,114.9Z" transform="translate(-720.856 -114.9)"/>
      </g>
    </g>
    <path id="Path_454" data-name="Path 454" class="cls-3" d="M773.3,114.9v98.182S835.992,192.361,773.3,114.9Z" transform="translate(-741.157 -110.597)"/>
  </g>
  <g id="Group_545" data-name="Group 545" transform="translate(428.811 37.998)">
    <g id="Group_544" data-name="Group 544">
      <rect id="Rectangle_89" data-name="Rectangle 89" class="cls-1" width="45.648" height="60.439"/>
      <g id="Group_543" data-name="Group 543" transform="translate(4.273 4.346)">
        <path id="Path_455" data-name="Path 455" class="cls-7" d="M841.96,79.7c12.166,47.869-20.348,44.2-20.348,44.2S797.7,101.589,841.96,79.7Z" transform="translate(-815.163 -79.7)"/>
      </g>
    </g>
    <path id="Path_456" data-name="Path 456" class="cls-8" d="M847.648,79.7,827.3,123.9S859.815,127.516,847.648,79.7Z" transform="translate(-816.579 -75.354)"/>
  </g>
  <g id="Group_548" data-name="Group 548" transform="translate(161.936 105.832)">
    <g id="Group_547" data-name="Group 547">
      <rect id="Rectangle_90" data-name="Rectangle 90" class="cls-1" width="96.651" height="157.983"/>
      <g id="Group_546" data-name="Group 546" transform="translate(4.32 4.303)">
        <path id="Path_457" data-name="Path 457" class="cls-4" d="M354.727,207.3c88.406,113.483-2.6,141.747-2.6,141.747S262.23,317.489,354.727,207.3Z" transform="translate(-312.931 -207.3)"/>
      </g>
    </g>
    <path id="Path_458" data-name="Path 458" class="cls-5" d="M389.3,207.3l-2.6,141.747C386.7,349.1,477.762,320.836,389.3,207.3Z" transform="translate(-343.188 -202.997)"/>
  </g>
</svg>
