<svg id="logo-color" xmlns="http://www.w3.org/2000/svg" xmlns:xlink="http://www.w3.org/1999/xlink" viewBox="0 0 114.911 45">
  <defs>
    <style>
      .cls-1 {
        fill: none;
      }

      .cls-2 {
        fill: #333;
      }

      .cls-3 {
        fill: #50973c;
      }

      .cls-4 {
        clip-path: url(#clip-path);
      }
    </style>
    <clipPath id="clip-path">
      <path id="Clip_22" data-name="Clip 22" class="cls-1" d="M0,0H9.585V9.346H0Z" transform="translate(0 0.239)"/>
    </clipPath>
  </defs>
  <path id="Fill_1" data-name="Fill 1" class="cls-2" d="M1.211,11.25H0V0H4.018A4.348,4.348,0,0,1,6.935.952a3.356,3.356,0,0,1,1.1,2.615V3.6A3.391,3.391,0,0,1,6.784,6.35a4.739,4.739,0,0,1-2.966.93H1.211v3.969Zm0-10.076v4.95H3.865c1.761,0,2.944-.995,2.944-2.475V3.616c0-1.529-1.078-2.443-2.883-2.443Z" transform="translate(46.607 32.946)"/>
  <path id="Fill_3" data-name="Fill 3" class="cls-2" d="M1.206,11.251H0V0H4.6A4.112,4.112,0,0,1,7.633,1.125a3.185,3.185,0,0,1,.824,2.218v.032a3.213,3.213,0,0,1-2.9,3.279l3.281,4.595-1.479,0L4.26,6.879H1.206V11.25Zm0-10.077V5.738H4.488c1.669,0,2.748-.908,2.748-2.314V3.391C7.236,2,6.215,1.174,4.5,1.174Z" transform="translate(56.25 32.946)"/>
  <path id="Fill_5" data-name="Fill 5" class="cls-2" d="M0,9.285l.844-.777a2.657,2.657,0,0,0,2.37,1.585c1.17,0,2.029-.9,2.029-2.662V0H6.429V7.416a4.172,4.172,0,0,1-.948,2.915A3.065,3.065,0,0,1,3.2,11.25,3.52,3.52,0,0,1,0,9.285" transform="translate(77.946 32.946)"/>
  <path id="Fill_7" data-name="Fill 7" class="cls-2" d="M0,0H7.957V1.157H1.242V5H7.249V6.156H1.242v3.937H8.036V11.25H0Z" transform="translate(87.589 32.946)"/>
  <path id="Fill_9" data-name="Fill 9" class="cls-2" d="M0,5.656V5.625A5.438,5.438,0,0,1,5.41,0,5.521,5.521,0,0,1,9.582,1.725l-.825.9A4.615,4.615,0,0,0,5.395,1.134,4.234,4.234,0,0,0,1.253,5.594v.031a4.262,4.262,0,0,0,4.142,4.491A4.612,4.612,0,0,0,8.849,8.546l.794.792A5.529,5.529,0,0,1,5.364,11.25,5.384,5.384,0,0,1,0,5.656" transform="translate(96.429 32.946)"/>
  <path id="Fill_11" data-name="Fill 11" class="cls-2" d="M3.433,1.173H0V0H8.036V1.173H4.6V11.25H3.433Z" transform="translate(106.875 32.946)"/>
  <path id="Fill_13" data-name="Fill 13" class="cls-3" d="M3.455,1.832H0V0H8.839V1.832H5.384V11.25H3.455Z" transform="translate(7.232 32.946)"/>
  <path id="Fill_15" data-name="Fill 15" class="cls-3" d="M1.827,11.251H0V0H4.635a4,4,0,0,1,3,1.125A3.553,3.553,0,0,1,8.5,3.551v.032A3.331,3.331,0,0,1,6.032,6.991l2.806,4.257-2.168,0L4.115,7.329H1.827V11.25Zm0-9.451V5.576H4.5A1.894,1.894,0,0,0,6.64,3.7V3.664C6.64,2.479,5.855,1.8,4.487,1.8Z" transform="translate(16.071 32.946)"/>
  <path id="Fill_17" data-name="Fill 17" class="cls-3" d="M0,0H7.959V1.768H1.886V4.693H7.269V6.461H1.886V9.482H8.036V11.25H0Z" transform="translate(26.518 32.946)"/>
  <path id="Fill_19" data-name="Fill 19" class="cls-3" d="M0,0H7.959V1.768H1.886V4.693H7.269V6.461H1.886V9.482H8.036V11.25H0Z" transform="translate(36.161 32.946)"/>
  <g id="Group_23" data-name="Group 23" transform="translate(0 20.089)">
    <path id="Clip_22-2" data-name="Clip 22" class="cls-1" d="M0,0H9.585V9.346H0Z" transform="translate(0 0.239)"/>
    <g id="Group_23-2" data-name="Group 23" class="cls-4">
      <path id="Fill_21" data-name="Fill 21" class="cls-2" d="M2.028,9.347H0L3.875,0H5.71L9.584,9.345H7.505L6.679,7.265H2.855L2.029,9.347ZM4.766,2.452l-1.2,3.01h2.4Z" transform="translate(0 0.239)"/>
    </g>
  </g>
  <path id="Fill_24" data-name="Fill 24" class="cls-2" d="M2.046,9.644H0V0H4.25A3.655,3.655,0,0,1,6.96.978a3.094,3.094,0,0,1,.8,2.2v.027A3,3,0,0,1,5.765,6.2L8.035,9.641l-2.39,0L3.652,6.557H2.046V9.643Zm0-7.728V4.684H4.118c.967,0,1.567-.522,1.567-1.363V3.292c0-.888-.571-1.377-1.607-1.377Z" transform="translate(10.446 20.089)"/>
  <path id="Fill_26" data-name="Fill 26" class="cls-2" d="M0,0H2.1L4.42,4.078,6.743,0h2.1V9.643H6.907v-6.3L4.42,7.467H4.369L1.907,3.389V9.643H0Z" transform="translate(20.286 20.089)"/>
  <path id="Fill_28" data-name="Fill 28" class="cls-2" d="M0,0H7.164V1.887H2.076V3.843H6.554V5.731H2.076V7.756H7.232V9.643H0Z" transform="translate(31.339 20.089)"/>
  <path id="Fill_30" data-name="Fill 30" class="cls-2" d="M0,0H1.835L6.072,5.937V0H8.036V9.643H6.343l-4.38-6.13v6.13H0Z" transform="translate(40.375 20.089)"/>
  <path id="Fill_32" data-name="Fill 32" class="cls-2" d="M0,9.643H1.607V0H0Z" transform="translate(50.625 20.089)"/>
  <path id="Fill_34" data-name="Fill 34" class="cls-2" d="M2.04,9.643H0L3.9,0H5.744l3.9,9.641H7.551L6.718,7.5H2.872L2.04,9.643ZM4.8,2.531l-1.21,3.1H6Z" transform="translate(54.643 20.089)"/>
  <path id="Fill_35" data-name="Fill 35" class="cls-3" d="M10.446,2.57A8.438,8.438,0,0,0,0,1.309C4.241,4.661,10.446,2.57,10.446,2.57" transform="translate(57.054 11.25)"/>
  <path id="Fill_36" data-name="Fill 36" class="cls-3" d="M0,7.232S6.5,6.62,6.428,0C1.347,1.259,0,7.232,0,7.232" transform="translate(69.107 6.429)"/>
  <path id="Fill_37" data-name="Fill 37" class="cls-3" d="M7.146,10.446S8.553,2.055,0,0C-.094,6.809,7.146,10.446,7.146,10.446" transform="translate(60.268)"/>
  <path id="Fill_38" data-name="Fill 38" class="cls-2" d="M1.824,0A11.451,11.451,0,0,1,3.568,3.008,15.971,15.971,0,0,1,4.495,6.4a25.092,25.092,0,0,1,.073,7.028,35.41,35.41,0,0,1-1.543,6.86c-.09.279-.182.558-.281.834s-.2.553-.3.826-.215.55-.328.828c-.056.136-.113.286-.17.4s-.092.229-.134.351A9.542,9.542,0,0,0,1.37,26.7a6.366,6.366,0,0,0,.744,2.989A3.731,3.731,0,0,0,4.39,31.429a6.367,6.367,0,0,0,1.533.231c.265.007.532,0,.8-.012.138,0,.255-.023.384-.033s.25-.034.371-.066a4.186,4.186,0,0,0,2.476-1.622,6.3,6.3,0,0,0,1.152-2.945,5.99,5.99,0,0,0-.357-3.18,2.952,2.952,0,0,0-.936-1.226,2.332,2.332,0,0,0-1.474-.423,3.832,3.832,0,0,0-.808.128,5.361,5.361,0,0,0-.786.294,8.814,8.814,0,0,0-1.475.867,8.168,8.168,0,0,1,1.375-1.06,4.52,4.52,0,0,1,1.659-.626,2.735,2.735,0,0,1,1.808.354,3.521,3.521,0,0,1,1.263,1.382,6.8,6.8,0,0,1,.656,3.589,7.278,7.278,0,0,1-1.184,3.5,5.43,5.43,0,0,1-1.333,1.376,5.222,5.222,0,0,1-1.759.8c-.156.044-.314.066-.472.1s-.322.046-.471.055c-.3.028-.608.039-.916.04a7.268,7.268,0,0,1-1.864-.236,5.356,5.356,0,0,1-1.761-.846A5.035,5.035,0,0,1,.953,30.391,6.47,6.47,0,0,1,.236,28.6,8.446,8.446,0,0,1,0,26.738,11.209,11.209,0,0,1,.119,24.9a9.884,9.884,0,0,1,.429-1.811c.053-.151.11-.3.179-.455s.114-.262.169-.393c.107-.255.214-.511.317-.778.209-.528.414-1.057.6-1.593a39.108,39.108,0,0,0,1.715-6.591,27.02,27.02,0,0,0,.318-6.793A14.555,14.555,0,0,0,1.824,0" transform="translate(65.893 12.054)"/>
  <path id="Fill_39" data-name="Fill 39" class="cls-3" d="M4.748.653A5.156,5.156,0,0,0,1.154,3.034l-.077-.055A11.332,11.332,0,0,1,3.514,0a3.731,3.731,0,0,0-1.9.652C.359,1.472-.3,2.743.136,3.492s1.815.692,3.071-.128C4.395,2.588,5.051,1.413,4.748.653" transform="translate(68.304 33.75)"/>
</svg>
