<svg xmlns="http://www.w3.org/2000/svg" width="21.875" height="25" viewBox="0 0 21.875 25">
  <g id="pdf" transform="translate(-32)">
    <path id="Path_902" data-name="Path 902" d="M97.562,0A1.567,1.567,0,0,0,96,1.563V23.438A1.567,1.567,0,0,0,97.562,25h15.616a1.567,1.567,0,0,0,1.562-1.562V6.25L108.493,0Z" transform="translate(-60.865)" fill="#e2e5e7"/>
    <path id="Path_903" data-name="Path 903" d="M353.568,6.271h4.7L352,0V4.7A1.572,1.572,0,0,0,353.568,6.271Z" transform="translate(-304.396)" fill="#b0b7bd"/>
    <path id="Path_904" data-name="Path 904" d="M388.7,132.7,384,128h4.7Z" transform="translate(-334.828 -121.755)" fill="#cad1d8"/>
    <path id="Path_905" data-name="Path 905" d="M50.74,248.623a.785.785,0,0,1-.781.784H32.781a.785.785,0,0,1-.781-.784v-7.839a.785.785,0,0,1,.781-.784H49.959a.785.785,0,0,1,.781.784Z" transform="translate(0 -228.305)" fill="#f15642"/>
    <g id="Group_895" data-name="Group 895" transform="translate(35.391 14.361)">
      <path id="Path_906" data-name="Path 906" d="M101.744,294.753a.431.431,0,0,1,.426-.433h1.448a1.567,1.567,0,0,1,0,3.134h-1.046v.828a.393.393,0,0,1-.4.432.422.422,0,0,1-.426-.432Zm.827.357v1.561h1.046a.781.781,0,0,0,0-1.561Z" transform="translate(-101.744 -294.32)" fill="#fff"/>
      <path id="Path_907" data-name="Path 907" d="M188.257,299.809a.392.392,0,0,1-.433-.388v-3.56a.426.426,0,0,1,.433-.389h1.435c2.864,0,2.8,4.337.056,4.337Zm.4-3.572v2.808h1.04c1.692,0,1.768-2.808,0-2.808Z" transform="translate(-183.607 -295.416)" fill="#fff"/>
      <path id="Path_908" data-name="Path 908" d="M287.956,296.272v1h1.6a.485.485,0,0,1,.452.445.436.436,0,0,1-.452.376h-1.6v1.316a.371.371,0,0,1-.375.388.4.4,0,0,1-.444-.388v-3.56a.4.4,0,0,1,.444-.389h2.2a.391.391,0,0,1,.439.389.433.433,0,0,1-.439.426h-1.825Z" transform="translate(-278.053 -295.4)" fill="#fff"/>
    </g>
    <path id="Path_909" data-name="Path 909" d="M110.824,416.784H96v.784h14.824a.784.784,0,0,0,.78-.784V416A.784.784,0,0,1,110.824,416.784Z" transform="translate(-60.865 -395.703)" fill="#cad1d8"/>
  </g>
</svg>
