<svg xmlns="http://www.w3.org/2000/svg" viewBox="0 0 21 25">
  <defs>
    <style>
      .cls-1 {
        fill: #6fd054;
      }
    </style>
  </defs>
  <g id="peach" transform="translate(-3.84)">
    <path id="Path_4" data-name="Path 4" class="cls-1" d="M21.62,10.71a6.38,6.38,0,0,1-3.323.94,6.459,6.459,0,0,1-.782-.048l-3.9-.481,1.458-3.4c-.246-.019-.492-.037-.737-.037A10.669,10.669,0,0,0,3.84,18.486a10.669,10.669,0,0,0,10.5,10.806,10.205,10.205,0,0,0,5.169-1.406l1.521-2.911a8.965,8.965,0,0,0,.274-7.185,5.217,5.217,0,0,0-3.319-3.132h0a.415.415,0,0,1-.165-.034,7.214,7.214,0,0,0-2.416-.4c-1.6-.034-3.373-.288-4.253-2.875a.444.444,0,0,1,.263-.562.425.425,0,0,1,.546.27c.7,2.059,1.982,2.253,3.462,2.285a8.2,8.2,0,0,1,2.668.441.4.4,0,0,1,.079.005,6.069,6.069,0,0,1,3.922,3.647,9.778,9.778,0,0,1-.3,7.95l-.727,1.392A11,11,0,0,0,21.62,10.71ZM7.078,21.53a.41.41,0,0,1-.142.025.429.429,0,0,1-.4-.3,8.974,8.974,0,0,1-.144-5.312.427.427,0,0,1,.532-.3.443.443,0,0,1,.291.547,8.068,8.068,0,0,0,.13,4.772A.445.445,0,0,1,7.078,21.53Zm1.829-8.365a7.4,7.4,0,0,0-1.032,1.425.426.426,0,0,1-.372.222.417.417,0,0,1-.213-.058.448.448,0,0,1-.159-.6,8.233,8.233,0,0,1,1.156-1.6.421.421,0,0,1,.606-.015A.449.449,0,0,1,8.907,13.166Z" transform="translate(0 -4.293)"/>
    <path id="Path_5" data-name="Path 5" class="cls-1" d="M35.929,2.417a.448.448,0,0,1-.142.606L30.737,6.2l1.888.233a5.569,5.569,0,0,0,.68.042h0a5.677,5.677,0,0,0,5.2-3.488L39.618.382,36.87.042A5.571,5.571,0,0,0,36.19,0a5.677,5.677,0,0,0-5.2,3.488l-.889,2.076,5.234-3.293A.421.421,0,0,1,35.929,2.417Z" transform="translate(-15.008 0)"/>
  </g>
</svg>
