<svg xmlns="http://www.w3.org/2000/svg" viewBox="0 0 15.877 25">
  <defs>
    <style>
      .cls-1 {
        fill: #6fd054;
      }
    </style>
  </defs>
  <g id="pear" transform="translate(-93.41 0.001)">
    <g id="Group_306" data-name="Group 306" transform="translate(93.41 -0.001)">
      <path id="Path_401" data-name="Path 401" class="cls-1" d="M109.106,15.464c-.613-2.8-2.713-4.588-3.348-7.057-.643-2.5-2.256-3.841-3.687-4.135-.18-1.66-.667-.995.611-1.2a2.059,2.059,0,0,0,1.981,1.038c1.076-.1,2.793-1.716,3.549-2.392-.878-.537-2.848-1.812-3.921-1.714a2.061,2.061,0,0,0-1.83,1.621,3.208,3.208,0,0,1-1.5-.17A5.852,5.852,0,0,0,99.459.012l-.765,1.249a4.494,4.494,0,0,1,1.9,3.018,5.276,5.276,0,0,0-3.655,4.128c-.634,2.468-2.735,4.257-3.348,7.057a7.922,7.922,0,1,0,15.513,0Z" transform="translate(-93.41 0.001)"/>
    </g>
  </g>
</svg>
