<svg id="icon:phase1" xmlns="http://www.w3.org/2000/svg" viewBox="0 0 100 100">
  <defs>
    <style>
      .cls-1 {
        fill: #9af4ef;
      }

      .cls-2 {
        opacity: 0.3;
      }

      .cls-3 {
        fill: #fffff4;
      }

      .cls-4 {
        fill: #36b294;
      }

      .cls-5 {
        opacity: 0.4;
      }

      .cls-6 {
        fill: #674447;
      }

      .cls-7 {
        fill: #43ab5f;
      }

      .cls-8 {
        fill: #71be63;
      }

      .cls-9 {
        opacity: 0.6;
      }

      .cls-10 {
        fill: #fff;
      }

      .cls-11 {
        fill: #00a07d;
      }

      .cls-12 {
        fill: #94d75b;
      }

      .cls-13 {
        fill: #b0eb81;
      }
    </style>
  </defs>
  <g id="Group_37" data-name="Group 37">
    <circle id="Ellipse_1" data-name="Ellipse 1" class="cls-1" cx="50" cy="50" r="50"/>
  </g>
  <g id="Group_38" data-name="Group 38" class="cls-2" transform="translate(44.072 9.2)">
    <path id="Path_1" data-name="Path 1" class="cls-3" d="M247.092,49.583c-21.025,5.944-36.515,26.241-36.515,50.377a53.321,53.321,0,0,0,17.222,39.6c22.03-4.369,38.706-24.826,38.706-49.42A51.211,51.211,0,0,0,247.092,49.583Z" transform="translate(-210.577 -49.583)"/>
  </g>
  <g id="Group_39" data-name="Group 39" transform="translate(0.604 30.038)">
    <path id="Path_2" data-name="Path 2" class="cls-4" d="M42.545,163.393c-2.087-1.727-5.1-.192-6.726-1.583-2.17-1.86-2.663-2.346-4.644-2.854-1.809-.464-3.447.586-5.19-1.738-1.252-1.67-2.434-1.5-3.945-1.13s-1.976-.04-4.01-1.723c-1.345-1.113-2.574-1.508-5.358-1.415a14.563,14.563,0,0,1-5.909-1.094,47.13,47.13,0,0,0-3.506,11.771c6.722.706,8.743.4,11.363,1.244,2.876.928,30.832,6.587,31.327,6.309s.823-4.7.823-4.7C43.963,165.977,43.924,164.534,42.545,163.393Z" transform="translate(-3.257 -151.856)"/>
  </g>
  <g id="Group_40" data-name="Group 40" class="cls-5" transform="translate(71.55 38.377)">
    <path id="Path_3" data-name="Path 3" class="cls-3" d="M358.667,210.438a21.775,21.775,0,0,0,17.286,21.3,47.563,47.563,0,0,0,9.675-42.426,21.7,21.7,0,0,0-26.961,21.122Z" transform="translate(-358.667 -188.667)"/>
  </g>
  <g id="Group_47" data-name="Group 47" transform="translate(77.488 28.097)">
    <g id="Group_42" data-name="Group 42" transform="translate(4.969 13.212)">
      <g id="Group_41" data-name="Group 41">
        <path id="Path_4" data-name="Path 4" class="cls-6" d="M418.388,224.486a.937.937,0,0,1-.938-.937V213.455a.938.938,0,0,1,1.875,0v10.093A.937.937,0,0,1,418.388,224.486Z" transform="translate(-417.45 -212.518)"/>
      </g>
    </g>
    <g id="Group_44" data-name="Group 44">
      <g id="Group_43" data-name="Group 43">
        <path id="Path_5" data-name="Path 5" class="cls-7" d="M402.483,154.6a5.907,5.907,0,1,1-11.813,0c0-3.262,2.644-13.29,5.907-13.29S402.483,151.338,402.483,154.6Z" transform="translate(-390.67 -141.31)"/>
      </g>
    </g>
    <g id="Group_46" data-name="Group 46" transform="translate(3.599)">
      <g id="Group_45" data-name="Group 45">
        <path id="Path_6" data-name="Path 6" class="cls-8" d="M412.374,141.31a3.149,3.149,0,0,0-2.308,1.631h0c2.986,0,5.406,9.178,5.406,12.164a5.4,5.4,0,0,1-4.275,5.283,5.905,5.905,0,0,0,7.082-5.788C418.28,151.338,415.636,141.31,412.374,141.31Z" transform="translate(-410.066 -141.31)"/>
      </g>
    </g>
  </g>
  <g id="Group_48" data-name="Group 48" class="cls-9" transform="translate(32.811 22.381)">
    <path id="Path_7" data-name="Path 7" class="cls-10" d="M166.646,119.343a3.515,3.515,0,0,1,4.407-3.438,5.061,5.061,0,0,1,8.789,3.438h-13.2Z" transform="translate(-166.646 -114.267)"/>
  </g>
  <g id="Group_49" data-name="Group 49" class="cls-9" transform="translate(32.316 7.529)">
    <path id="Path_8" data-name="Path 8" class="cls-10" d="M164.295,45.109a3.138,3.138,0,0,1,3.935-3.069,4.519,4.519,0,0,1,7.847,3.069Z" transform="translate(-164.295 -40.577)"/>
  </g>
  <g id="Group_50" data-name="Group 50" class="cls-9" transform="translate(68.541 12.06)">
    <path id="Path_9" data-name="Path 9" class="cls-10" d="M358.463,68.639a2.52,2.52,0,0,0-3.16-2.465,3.629,3.629,0,0,0-6.3,2.465Z" transform="translate(-349 -64.999)"/>
  </g>
  <g id="Group_51" data-name="Group 51" transform="translate(0 36.503)">
    <path id="Path_10" data-name="Path 10" class="cls-11" d="M48.962,195.875c-1.249,0-1.457-1.235-1.579-1.484-1.367-2.783-3.021-1.484-5.736-1.484-2.122,0-2.556-3.092-3.741-2.969s-3.093,2.1-4.738,1.484c-2.361-.888-2.435-2.227-4.738-2.969-2.032-.655-3.751-.186-4.738-1.484-1.922-2.529-3.307.232-6.318-1.484-3.062-1.746-4.014,1.484-6.318,1.484-2.42,0-1.58-2.969-4.738-2.969-1.789,0-2.844,2.182-5.107,2.8a46.347,46.347,0,0,0-.874,16.092,8.491,8.491,0,0,0,2.3,1.605c2.824,1.213,62.121,2.255,62.121,2.255v-4.938c-4.343,0-4.343-2.969-7.9-2.969C52.071,198.844,52.515,195.875,48.962,195.875Z" transform="translate(0 -184)"/>
  </g>
  <g id="Group_52" data-name="Group 52" transform="translate(0 50.489)">
    <path id="Path_11" data-name="Path 11" class="cls-12" d="M19.854,285.334l43.975-23.552-1.113-2.4c-10.648,0-29.125-10.824-62.715-6.989a47.3,47.3,0,0,0,11.492,30.96C15.987,284.423,19.854,285.334,19.854,285.334Z" transform="translate(0 -251.568)"/>
  </g>
  <g id="Group_53" data-name="Group 53" transform="translate(8.045 49.483)">
    <path id="Path_12" data-name="Path 12" class="cls-13" d="M98.027,259.416c-9.764,0-26.121-9.093-54.67-7.647,25.382.022,40.947,11.384,48.918,11.384l2.227-.831,3.592-2.763Z" transform="translate(-43.357 -251.614)"/>
  </g>
  <g id="Group_54" data-name="Group 54" transform="translate(16.878 20.595)">
    <path id="Path_13" data-name="Path 13" class="cls-10" d="M102.8,107.758a4.026,4.026,0,0,0-1.218.206,6.769,6.769,0,0,0-11.138,0,4.026,4.026,0,0,0-1.218-.206,4.072,4.072,0,0,0-4.072,4.072h21.719A4.073,4.073,0,0,0,102.8,107.758Z" transform="translate(-85.155 -105.043)"/>
  </g>
  <g id="Group_55" data-name="Group 55" transform="translate(49.245 16.345)">
    <path id="Path_14" data-name="Path 14" class="cls-10" d="M267.3,86.3a4.406,4.406,0,0,0-1.332.225,7.4,7.4,0,0,0-12.18,0,4.406,4.406,0,0,0-1.332-.225A4.453,4.453,0,0,0,248,90.755h23.75A4.453,4.453,0,0,0,267.3,86.3Z" transform="translate(-248 -83.333)"/>
  </g>
  <g id="Group_56" data-name="Group 56" transform="translate(36.488 8.659)">
    <path id="Path_15" data-name="Path 15" class="cls-10" d="M184.705,53.469a4.711,4.711,0,0,1,5.908-4.608,6.784,6.784,0,0,1,11.781,4.608Z" transform="translate(-184.705 -46.666)"/>
  </g>
  <g id="Group_57" data-name="Group 57" transform="translate(4.206 51.022)">
    <path id="Path_16" data-name="Path 16" class="cls-8" d="M22.667,269.047c7.861,16.486,25.35,27.965,45.678,27.965,27.678,0,50.116-21.266,50.116-47.5,0-.5-.023-.986-.039-1.478-30.991.135-45.044,20.775-95.755,20.775Z" transform="translate(-22.667 -248.034)"/>
  </g>
  <g id="Group_64" data-name="Group 64" transform="translate(61.611 30.991)">
    <g id="Group_59" data-name="Group 59" transform="translate(5.639 14.993)">
      <g id="Group_58" data-name="Group 58">
        <path id="Path_17" data-name="Path 17" class="cls-6" d="M344.33,249.719a1.064,1.064,0,0,1-1.064-1.063V237.2a1.064,1.064,0,0,1,2.128,0v11.454A1.064,1.064,0,0,1,344.33,249.719Z" transform="translate(-343.266 -236.138)"/>
      </g>
    </g>
    <g id="Group_61" data-name="Group 61">
      <g id="Group_60" data-name="Group 60">
        <path id="Path_18" data-name="Path 18" class="cls-7" d="M326.282,170.414a6.7,6.7,0,1,1-13.4,0c0-3.7,3-15.081,6.7-15.081S326.282,166.712,326.282,170.414Z" transform="translate(-312.877 -155.333)"/>
      </g>
    </g>
    <g id="Group_63" data-name="Group 63" transform="translate(4.084)">
      <g id="Group_62" data-name="Group 62">
        <path id="Path_19" data-name="Path 19" class="cls-8" d="M337.506,155.333c-.929,0-1.814.718-2.619,1.851h0c3.388,0,6.135,10.415,6.135,13.8a6.133,6.133,0,0,1-4.851,6,6.7,6.7,0,0,0,8.037-6.568C344.208,166.712,341.207,155.333,337.506,155.333Z" transform="translate(-334.887 -155.333)"/>
      </g>
    </g>
  </g>
  <g id="Group_65" data-name="Group 65" transform="translate(19.869 55.61)">
    <path id="Path_20" data-name="Path 20" class="cls-7" d="M160.155,272.76c-20.876.1-50.8,28.988-80.019,31.354a47.45,47.45,0,0,0,80.019-31.354Z" transform="translate(-80.136 -272.76)"/>
  </g>
  <g id="Group_66" data-name="Group 66" transform="translate(36.939 87.012)">
    <circle id="Ellipse_2" data-name="Ellipse 2" class="cls-13" cx="1.237" cy="1.237" r="1.237"/>
  </g>
  <g id="Group_67" data-name="Group 67" transform="translate(43.026 71.11)">
    <circle id="Ellipse_3" data-name="Ellipse 3" class="cls-12" cx="1.237" cy="1.237" r="1.237"/>
  </g>
  <g id="Group_68" data-name="Group 68" transform="translate(78.307 53.987)">
    <circle id="Ellipse_4" data-name="Ellipse 4" class="cls-12" cx="1.237" cy="1.237" r="1.237"/>
  </g>
  <g id="Group_69" data-name="Group 69" transform="translate(56.54 88.991)">
    <circle id="Ellipse_5" data-name="Ellipse 5" class="cls-8" cx="1.237" cy="1.237" r="1.237"/>
  </g>
  <g id="Group_70" data-name="Group 70" transform="translate(63.566 81.322)">
    <circle id="Ellipse_6" data-name="Ellipse 6" class="cls-13" cx="1.237" cy="1.237" r="1.237"/>
  </g>
  <g id="Group_71" data-name="Group 71" transform="translate(48.763 83.081)">
    <circle id="Ellipse_7" data-name="Ellipse 7" class="cls-8" cx="1.237" cy="1.237" r="1.237"/>
  </g>
  <g id="Group_72" data-name="Group 72" transform="translate(26.859 88.249)">
    <circle id="Ellipse_8" data-name="Ellipse 8" class="cls-8" cx="1.237" cy="1.237" r="1.237"/>
  </g>
  <g id="Group_73" data-name="Group 73" transform="translate(28.163 76.739)">
    <circle id="Ellipse_9" data-name="Ellipse 9" class="cls-13" cx="1.237" cy="1.237" r="1.237"/>
  </g>
  <g id="Group_74" data-name="Group 74" transform="translate(50.067 66.234)">
    <circle id="Ellipse_10" data-name="Ellipse 10" class="cls-13" cx="1.237" cy="1.237" r="1.237"/>
  </g>
  <g id="Group_75" data-name="Group 75" transform="translate(17.467 76.087)">
    <circle id="Ellipse_11" data-name="Ellipse 11" class="cls-12" cx="1.237" cy="1.237" r="1.237"/>
  </g>
  <g id="Group_76" data-name="Group 76" transform="translate(72.712 74.783)">
    <circle id="Ellipse_12" data-name="Ellipse 12" class="cls-13" cx="1.237" cy="1.237" r="1.237"/>
  </g>
  <g id="Group_77" data-name="Group 77" transform="translate(85.961 71.11)">
    <circle id="Ellipse_13" data-name="Ellipse 13" class="cls-13" cx="1.237" cy="1.237" r="1.237"/>
  </g>
  <g id="Group_78" data-name="Group 78" transform="translate(61.19 73.48)">
    <circle id="Ellipse_14" data-name="Ellipse 14" class="cls-8" cx="1.237" cy="1.237" r="1.237"/>
  </g>
  <g id="Group_79" data-name="Group 79" transform="translate(72.712 84.206)">
    <circle id="Ellipse_15" data-name="Ellipse 15" class="cls-8" cx="1.237" cy="1.237" r="1.237"/>
  </g>
  <g id="Group_80" data-name="Group 80" transform="translate(76.665 67.538)">
    <circle id="Ellipse_16" data-name="Ellipse 16" class="cls-8" cx="1.237" cy="1.237" r="1.237"/>
  </g>
  <g id="Group_81" data-name="Group 81" transform="translate(85.961 59.966)">
    <circle id="Ellipse_17" data-name="Ellipse 17" class="cls-8" cx="1.237" cy="1.237" r="1.237"/>
  </g>
</svg>
