<svg xmlns="http://www.w3.org/2000/svg" viewBox="0 0 2178.019 2278.743">
  <defs>
    <style>
      .cls-1 {
        opacity: 0.05;
      }

      .cls-2 {
        fill: #333;
      }
    </style>
  </defs>
  <g id="treerings" class="cls-1" transform="translate(-0.292 -0.134)">
    <path id="Fill_1" data-name="Fill 1" class="cls-2" d="M458.871,844.435a499.44,499.44,0,0,1-91.94-8.683,521.085,521.085,0,0,1-88.953-25.063,494.385,494.385,0,0,1-81.766-39.964,428.992,428.992,0,0,1-70.38-53.385A218.909,218.909,0,0,1,99.3,686.6a384.316,384.316,0,0,1-24.9-39.514c-7.8-14.08-15.373-29.448-22.515-45.676-6.946-15.782-13.469-32.344-19.387-49.226-11.745-33.5-20.879-67.615-26.413-98.653a397.207,397.207,0,0,1-5.536-44.2,210.609,210.609,0,0,1,.571-37.3,412.5,412.5,0,0,1,15.7-74.189,420.6,420.6,0,0,1,28.5-69.269A428.347,428.347,0,0,1,194.831,65.232,419.8,419.8,0,0,1,261.75,30.6c11.742-4.788,23.835-9.081,35.944-12.76,12.26-3.725,24.839-6.912,37.387-9.473,12.723-2.6,25.734-4.616,38.671-6,13.133-1.4,26.522-2.192,39.8-2.339C415.289.009,417.053,0,418.79,0c55.9,0,108.25,9.287,155.6,27.6,11.519,4.456,22.861,9.5,33.712,15.006a356.369,356.369,0,0,1,31.433,18,343.695,343.695,0,0,1,79.607,70.7,352.421,352.421,0,0,1,21.3,28.721c6.619,9.943,12.847,20.4,18.511,31.09,5.68,10.717,10.935,21.932,15.62,33.334,19.143,46.586,29.756,98.157,31.545,153.28,1.175,34.938,1.308,65.726.4,94.122-.564,17.746-1.55,34.931-2.932,51.077-1.536,17.955-3.611,35.227-6.168,51.335-2.793,17.6-6.246,34.346-10.264,49.78a371.454,371.454,0,0,1-15.22,46.411A258.517,258.517,0,0,1,750.9,711.688a200.578,200.578,0,0,1-12.968,18.1,173.916,173.916,0,0,1-14.745,16.127c-34.225,32.947-75.319,58.141-122.141,74.882A398.58,398.58,0,0,1,531.4,838.65,450.479,450.479,0,0,1,458.871,844.435ZM385.662,15.547c-2.472,0-4.888.013-7.385.039C208.521,17.462,36.175,171.535,16.688,338.837a295.51,295.51,0,0,0-1.539,42.642,487.991,487.991,0,0,0,4.093,48.912,695.346,695.346,0,0,0,23,106.231c23.21,77.723,56.282,140.872,90.734,173.254A473.606,473.606,0,0,0,203.563,764.6a492.365,492.365,0,0,0,79.631,40.9A482.644,482.644,0,0,0,368.578,831.1a447.987,447.987,0,0,0,87.844,8.861c100.855,0,190.628-35.1,259.612-101.506,36.071-34.711,61.179-90.372,74.628-165.438,9.587-53.507,13.288-117.341,11-189.729-2-60.078-13.739-114.338-34.9-161.275-20.35-45.133-49.521-83.783-86.7-114.875-71.652-59.918-173.442-91.59-294.366-91.594h-.031Z" transform="translate(621 639.566)"/>
    <path id="Fill_4" data-name="Fill 4" class="cls-2" d="M372.85,743h-.021a357.975,357.975,0,0,1-73.246-7.748A398.393,398.393,0,0,1,228.21,713a423.191,423.191,0,0,1-126.58-82.025,291.771,291.771,0,0,1-23.872-25.365,302.5,302.5,0,0,1-20.551-27.739,328.559,328.559,0,0,1-31.4-61.3A374.323,374.323,0,0,1,6.93,449.661,417.929,417.929,0,0,1,.048,379.734a442.784,442.784,0,0,1,6.076-79.723,431.8,431.8,0,0,1,20.117-76.482A384.276,384.276,0,0,1,59.65,154.076,320.1,320.1,0,0,1,105.6,95.44,288.844,288.844,0,0,1,131.02,72.883a305.06,305.06,0,0,1,27.824-19.474,336.165,336.165,0,0,1,61.542-29.794A382.7,382.7,0,0,1,287.591,5.873,419.586,419.586,0,0,1,357.822,0,433.245,433.245,0,0,1,433.5,6.675a415.465,415.465,0,0,1,72.89,19.873,373.636,373.636,0,0,1,66.863,32.844,325.566,325.566,0,0,1,57.6,45.587,226.564,226.564,0,0,1,19.431,22.181,244.4,244.4,0,0,1,16.556,24.571,284.388,284.388,0,0,1,24.786,55.182,356.266,356.266,0,0,1,14.181,61.351,434.863,434.863,0,0,1,4.174,65.258,506.021,506.021,0,0,1-9.418,91.5,524.889,524.889,0,0,1-25.507,88.788c-22.776,58.936-54.992,109.51-93.165,146.256a292.408,292.408,0,0,1-98.8,63.1C448.664,736.325,411.575,743,372.85,743ZM349.389,10.437A427.669,427.669,0,0,0,282.031,15.7a373.72,373.72,0,0,0-64.036,16.006C175.179,46.666,139.023,68.7,110.529,97.187,45.622,162.091,7.782,261.218,9.307,362.352c1.435,95.126,36.762,180.026,99.473,239.06a580.3,580.3,0,0,0,64.272,52.565A487.491,487.491,0,0,0,242.417,694.8c49.726,23.783,98.863,35.844,146.047,35.849h.029c69.8,0,132.463-26.26,186.241-78.054,38.9-37.473,71.568-87.113,94.466-143.553,22.533-55.54,34.728-115.332,35.266-172.911.412-44.072-5.925-85.321-18.834-122.6-13.761-39.742-34.652-73.806-62.092-101.244C559.681,48.514,457.2,10.438,349.4,10.437Z" transform="translate(681 702)"/>
    <path id="Fill_6" data-name="Fill 6" class="cls-2" d="M351.8,623h-.015a164.9,164.9,0,0,1-34.07-3.881,265.007,265.007,0,0,1-36.328-10.731c-23.2-8.57-48.362-20.846-74.8-36.486-11.882-7.03-24.052-14.766-36.173-22.994-11.329-7.69-22.71-15.872-33.828-24.32a708.754,708.754,0,0,1-56.03-47.095A262.537,262.537,0,0,1,52.1,448.405a233.679,233.679,0,0,1-21.942-31.116,216.841,216.841,0,0,1-25.6-66.564A231.558,231.558,0,0,1,1.207,281.3a271.849,271.849,0,0,1,16.35-68.8c21.767-57.8,62.448-110.887,114.55-149.481A327.079,327.079,0,0,1,218.339,17,296.1,296.1,0,0,1,316.672.017l.942,0C318.767.007,319.936,0,321.089,0a315.71,315.71,0,0,1,59.057,5.53,300.8,300.8,0,0,1,54.747,15.933,292.258,292.258,0,0,1,49.419,25.352,285.083,285.083,0,0,1,78.779,75.022,284.228,284.228,0,0,1,27.324,47.7,288.2,288.2,0,0,1,17.922,53.183,299.56,299.56,0,0,1,7.5,57.68,339.9,339.9,0,0,1-3.29,58.222,389.147,389.147,0,0,1-13.082,58.8,403.664,403.664,0,0,1-22.149,56.89A379.514,379.514,0,0,1,546.824,506.8a328.593,328.593,0,0,1-38.111,45.6,270.975,270.975,0,0,1-45.005,36.214,235.094,235.094,0,0,1-24.862,13.811,217.563,217.563,0,0,1-26.314,10.531,207.006,207.006,0,0,1-27.675,6.941,204.613,204.613,0,0,1-28.946,3.039C354.569,622.977,353.186,623,351.8,623Zm-35-612.65c-62.446,0-123.824,20.544-177.5,59.412C88.766,106.359,49.2,156.834,27.9,211.889-9.122,307.568,12.679,401.6,87.712,469.867c16.572,15.658,35.207,31.859,53.89,46.852a771.234,771.234,0,0,0,67.029,48.425c55.331,35.327,102.273,53.239,139.524,53.239,1.285,0,2.523-.021,3.783-.064,54.5-1.764,108.183-29.261,155.233-79.518,65.408-69.867,107.417-174.541,104.534-260.467-2.426-73.655-33.866-141.657-88.528-191.481C469.041,37.51,397.185,10.335,320.845,10.335c-1.087,0-2.144.005-3.231.016h-.809Z" transform="translate(717 756)"/>
    <path id="Fill_1-2" data-name="Fill 1" class="cls-2" d="M789.988,1453.771A859.8,859.8,0,0,1,631.7,1438.823a897.064,897.064,0,0,1-153.141-43.148,851.1,851.1,0,0,1-140.768-68.8,738.52,738.52,0,0,1-121.166-91.907c-15.137-14.23-30.507-32.036-45.683-52.922a661.63,661.63,0,0,1-42.864-68.028c-13.424-24.24-26.465-50.7-38.761-78.636-11.958-27.169-23.187-55.683-33.377-84.748C35.723,892.956,20,834.226,10.472,780.792a683.793,683.793,0,0,1-9.53-76.1C-.582,680.612-.251,659,1.925,640.471c2.521-21.628,6.1-43.416,10.624-64.759,4.479-21.107,10-42.291,16.407-62.964C35.3,492.27,42.678,471.8,50.872,451.9c8.131-19.744,17.265-39.4,27.149-58.407,9.828-18.905,20.631-37.627,32.107-55.646,11.438-17.958,23.816-35.643,36.791-52.563,12.958-16.9,26.819-33.438,41.2-49.158s29.646-31.019,45.333-45.431c15.737-14.456,32.287-28.379,49.193-41.382,16.991-13.069,34.748-25.522,52.776-37.012,18.156-11.571,37.026-22.445,56.086-32.319,19.231-9.962,39.122-19.149,59.121-27.3,20.214-8.243,41.033-15.634,61.88-21.968,21.1-6.412,42.76-11.9,64.366-16.309,21.9-4.471,44.3-7.946,66.575-10.329C666.058,1.655,689.108.3,711.959.047,714.969.016,718.007,0,720.987,0c96.236,0,186.362,15.988,267.875,47.519,19.829,7.671,39.356,16.362,58.037,25.834a613.313,613.313,0,0,1,54.114,30.986,591.668,591.668,0,0,1,137.05,121.724,606.58,606.58,0,0,1,36.668,49.446c11.4,17.119,22.118,35.127,31.868,53.525,9.778,18.451,18.826,37.759,26.892,57.388,8.1,19.715,15.416,40.251,21.741,61.036,6.362,20.907,11.885,42.6,16.415,64.47,4.563,22.028,8.234,44.8,10.914,67.688,2.7,23.077,4.464,46.861,5.237,70.692.934,27.76,1.474,53.167,1.653,77.674.214,29.284-.108,57.668-.957,84.365-.971,30.554-2.669,60.139-5.047,87.933-2.645,30.916-6.217,60.651-10.618,88.379-2.356,14.845-5,29.44-7.861,43.38-2.98,14.528-6.281,28.767-9.809,42.321-3.666,14.082-7.684,27.833-11.942,40.871-4.413,13.511-9.211,26.643-14.261,39.03-5.222,12.81-10.862,25.191-16.764,36.8-6.093,11.984-12.638,23.483-19.453,34.178a345.256,345.256,0,0,1-22.326,31.166,299.417,299.417,0,0,1-25.385,27.764,565.1,565.1,0,0,1-47.74,41.063,574.993,574.993,0,0,1-51.263,35.067,596.439,596.439,0,0,1-54.331,29.231c-18.33,8.675-37.488,16.6-56.943,23.556-19.123,6.837-39.006,12.907-59.1,18.042-19.774,5.053-40.229,9.322-60.8,12.688-20.275,3.319-41.148,5.84-62.041,7.5C832.191,1452.942,811.053,1453.771,789.988,1453.771ZM664.005,26.765c-4.254,0-8.431.022-12.767.067A510.3,510.3,0,0,0,595.7,30.527a546.484,546.484,0,0,0-55.07,9.6c-18.016,4.093-36.261,9.183-54.229,15.131-17.7,5.857-35.531,12.681-53.013,20.283a686.783,686.783,0,0,0-100.876,54.511,737.281,737.281,0,0,0-91.507,70.587C121.881,308.38,44.509,447.868,28.73,583.339c-2.552,21.781-3.444,46.481-2.649,73.412a840.231,840.231,0,0,0,7.047,84.207c3.854,29.283,9.186,59.74,15.849,90.524,6.684,30.886,14.677,61.961,23.755,92.362,9.247,30.966,19.6,61.153,30.768,89.723,11.523,29.475,23.934,57.267,36.887,82.6a611.388,611.388,0,0,0,42.111,71.009c7.465,10.708,15.115,20.719,22.735,29.756a300.484,300.484,0,0,0,23.706,25.178,815.339,815.339,0,0,0,121.515,94.211,847.638,847.638,0,0,0,137.091,70.405,830.892,830.892,0,0,0,147,44.087,771.243,771.243,0,0,0,151.232,15.255c83.331,0,163.061-14.117,236.975-41.963a612.564,612.564,0,0,0,209.97-132.788c62.1-59.759,105.326-155.585,128.479-284.817,4.8-26.776,8.789-55.367,11.864-84.977,2.8-26.958,4.91-55.454,6.274-84.7,1.219-26.15,1.872-53.576,1.94-81.518.059-24.315-.324-49.7-1.137-75.445-.871-26.208-2.839-52.09-5.851-76.926-2.977-24.556-7.055-48.751-12.119-71.912a687.7,687.7,0,0,0-18.156-66.906,623.032,623.032,0,0,0-23.961-61.906c-35.035-77.7-85.256-144.241-149.267-197.769-62.153-51.974-137.39-91.788-223.623-118.336C862.354,40.008,767.087,26.769,664.005,26.765Z" transform="translate(329.797 334.897)"/>
    <path id="Fill_4-2" data-name="Fill 4" class="cls-2" d="M641.687,1279a598.789,598.789,0,0,1-63.153-3.388,636.392,636.392,0,0,1-62.914-9.95,685.609,685.609,0,0,1-122.842-38.3,728.358,728.358,0,0,1-217.86-141.2,502.18,502.18,0,0,1-41.086-43.662,520.77,520.77,0,0,1-35.37-47.749A549.278,549.278,0,0,1,68.7,943.478a585.108,585.108,0,0,1-24.271-54.249c-7.1-18.29-13.453-37.354-18.886-56.662-5.35-19.014-9.93-38.7-13.612-58.518A719.518,719.518,0,0,1,.083,653.676,762.343,762.343,0,0,1,10.54,516.44,743.386,743.386,0,0,1,45.164,384.784a661.531,661.531,0,0,1,57.5-119.557,580.787,580.787,0,0,1,36.925-53.2,525.537,525.537,0,0,1,42.161-47.734A497.123,497.123,0,0,1,225.5,125.461a525.027,525.027,0,0,1,47.888-33.523,560.165,560.165,0,0,1,51.459-28.257c17.484-8.449,35.808-16.2,54.463-23.031,18.405-6.742,37.549-12.745,56.9-17.844,19.14-5.043,38.913-9.315,58.769-12.7A722.054,722.054,0,0,1,615.856,0,745.549,745.549,0,0,1,746.108,11.49,715.034,715.034,0,0,1,871.561,45.7c20.245,7.591,40.158,16.171,59.185,25.5a623.763,623.763,0,0,1,55.895,31.035,581.538,581.538,0,0,1,51.908,36.519,542.8,542.8,0,0,1,47.224,41.955,389.978,389.978,0,0,1,33.444,38.182,420.8,420.8,0,0,1,28.5,42.3,464.331,464.331,0,0,1,23.675,45.925,518.7,518.7,0,0,1,18.984,49.066c5.49,16.612,10.342,34.013,14.421,51.721,4.013,17.422,7.373,35.553,9.986,53.889a748.728,748.728,0,0,1,7.183,112.335,871.2,871.2,0,0,1-16.209,157.513,903.656,903.656,0,0,1-43.9,152.839c-39.2,101.452-94.648,188.51-160.349,251.764-12.722,12.253-26.1,23.911-39.76,34.651a507.644,507.644,0,0,1-41.768,29.556,498.365,498.365,0,0,1-43.516,24.609c-14.584,7.3-29.726,13.967-45.006,19.807C772.207,1267.511,708.372,1279,641.723,1279ZM601.346,17.965a736.005,736.005,0,0,0-115.936,9.064A643.159,643.159,0,0,0,375.2,54.582a535.443,535.443,0,0,0-99.915,46.578,465.826,465.826,0,0,0-44.668,30.591,429.842,429.842,0,0,0-40.38,35.548C78.52,279.024,13.393,449.662,16.019,623.755A651.912,651.912,0,0,0,27.6,737.12,598.984,598.984,0,0,0,59.448,846.114a559.24,559.24,0,0,0,23.78,51.63,536.466,536.466,0,0,0,29.154,49.064,520.364,520.364,0,0,0,34.631,46.006,513.2,513.2,0,0,0,40.211,42.457,998.828,998.828,0,0,0,110.621,90.485,839.032,839.032,0,0,0,119.385,70.28c20.544,9.827,41.373,18.622,61.909,26.138a625.839,625.839,0,0,0,62.816,19.378,554.015,554.015,0,0,0,63.3,12.047,496.6,496.6,0,0,0,63.346,4.147h.048c14.054,0,28.161-.639,41.928-1.9,13.995-1.281,28.019-3.239,41.682-5.82,13.875-2.62,27.758-5.953,41.263-9.907,13.716-4.015,27.416-8.781,40.72-14.163,13.512-5.466,26.988-11.72,40.052-18.587,13.269-6.975,26.478-14.773,39.259-23.179,12.983-8.539,25.884-17.939,38.342-27.939,12.654-10.158,25.2-21.216,37.3-32.867,66.956-64.506,123.178-149.956,162.588-247.112,38.782-95.607,59.771-198.532,60.7-297.649.172-18.391-.358-36.8-1.575-54.727-1.232-18.139-3.2-36.206-5.842-53.7-2.681-17.737-6.125-35.316-10.237-52.249-4.175-17.193-9.142-34.142-14.761-50.374-23.684-68.412-59.64-127.049-106.867-174.282-27.973-27.939-60.632-53.355-97.068-75.543a644.328,644.328,0,0,0-115.4-54.918c-80.982-29.35-170.671-44.865-259.37-44.867Z" transform="translate(433 443)"/>
    <path id="Fill_6-2" data-name="Fill 6" class="cls-2" d="M605.659,1072.551h-.026a251.729,251.729,0,0,1-28.709-1.718c-9.61-1.109-19.685-2.779-29.946-4.963a456.233,456.233,0,0,1-62.542-18.473c-39.937-14.755-83.261-35.889-128.767-62.814-20.454-12.1-41.406-25.42-62.276-39.586-19.5-13.239-39.1-27.325-58.238-41.869A1220.246,1220.246,0,0,1,138.7,822.05c-9.026-7.922-17.752-16.184-25.935-24.557-8.069-8.257-15.828-16.844-23.061-25.523-7.134-8.56-13.948-17.441-20.255-26.4C63.223,736.742,57.329,727.6,51.925,718.4c-5.332-9.076-10.328-18.449-14.85-27.858-4.464-9.287-8.585-18.858-12.25-28.448A374.121,374.121,0,0,1,7.849,603.806a387.385,387.385,0,0,1-7.4-59.524,413.989,413.989,0,0,1,1.629-60.005A468.012,468.012,0,0,1,30.227,365.83c37.473-99.51,107.51-190.9,197.21-257.345a579.937,579.937,0,0,1,71.043-45.058c12.427-6.658,25.206-12.9,37.983-18.541,12.941-5.717,26.207-10.972,39.431-15.617A509.771,509.771,0,0,1,545.181.029l1.62,0C548.795.01,550.807,0,552.783,0c17.272,0,34.651.813,51.653,2.415,16.782,1.582,33.61,3.972,50.018,7.1,16.217,3.1,32.422,6.993,48.163,11.582,15.582,4.543,31.089,9.875,46.089,15.848,14.874,5.923,29.609,12.618,43.8,19.9,14.094,7.236,27.984,15.224,41.283,23.744,13.241,8.482,26.211,17.692,38.551,27.374,12.312,9.66,24.29,20.019,35.6,30.792s22.221,22.21,32.431,34c10.23,11.812,20,24.258,29.042,36.993,9.077,12.785,17.634,26.168,25.434,39.776,7.847,13.691,15.117,27.938,21.606,42.347,6.542,14.524,12.45,29.566,17.56,44.706,5.16,15.288,9.633,31.052,13.295,46.853,3.7,15.982,6.667,32.4,8.81,48.789,2.17,16.605,3.552,33.6,4.106,50.512a585.163,585.163,0,0,1-5.664,100.234A669.949,669.949,0,0,1,1032.034,684.2,694.956,694.956,0,0,1,993.9,782.14a653.372,653.372,0,0,1-52.5,90.363A565.717,565.717,0,0,1,875.8,951a491.77,491.77,0,0,1-37.335,33.46,444.72,444.72,0,0,1-40.146,28.886,404.7,404.7,0,0,1-42.8,23.776,374.511,374.511,0,0,1-45.3,18.131,356.377,356.377,0,0,1-47.645,11.949,352.288,352.288,0,0,1-49.833,5.232C610.422,1072.512,608.042,1072.551,605.659,1072.551ZM545.41,17.819a498.4,498.4,0,0,0-162.357,27.5A548.4,548.4,0,0,0,239.829,120.1C152.82,183.107,84.7,270,48.03,364.785A445.384,445.384,0,0,0,20.1,478.457a384.467,384.467,0,0,0,4.939,115.588A369.1,369.1,0,0,0,67.218,706.037C88.5,743.086,116.693,777.7,151,808.919c28.531,26.958,60.613,54.85,92.777,80.66a1327.743,1327.743,0,0,0,115.4,83.369c43.916,28.039,85.436,50,123.4,65.276,10.341,4.16,20.566,7.879,30.389,11.054,10.154,3.281,20.162,6.073,29.749,8.3a286.755,286.755,0,0,0,28.879,5.217,223.676,223.676,0,0,0,27.781,1.811c2.213,0,4.343-.036,6.512-.109,48.312-1.564,96.562-14.978,143.409-39.87,43.574-23.153,85.239-55.8,123.838-97.027,112.607-120.282,184.93-300.488,179.968-448.419-4.177-126.8-58.3-243.876-152.409-329.651C807.5,64.577,683.793,17.793,552.366,17.793c-1.88,0-3.7.009-5.565.028l-1.32,0Z" transform="translate(495.071 535.35)"/>
    <path id="Fill_1-3" data-name="Fill 1" class="cls-2" d="M1238.282,2278.742c-20.538,0-41.452-.5-62.162-1.5-20.586-.987-41.509-2.482-62.189-4.445-20.575-1.953-41.448-4.42-62.04-7.333-20.5-2.9-41.261-6.316-61.713-10.157a1406.162,1406.162,0,0,1-240.043-67.634,1334.047,1334.047,0,0,1-220.65-107.844c-17.229-10.53-34.322-21.557-50.8-32.776-16.563-11.274-32.95-23.042-48.706-34.977-15.843-12-31.465-24.489-46.432-37.116-15.063-12.709-29.861-25.9-43.981-39.193A502.656,502.656,0,0,1,303.33,1897.7c-11.756-13.65-23.658-28.749-35.377-44.878-22.695-31.233-45.3-67.109-67.188-106.631-21.041-37.995-41.483-79.465-60.757-123.26-18.743-42.586-36.345-87.28-52.318-132.839-15.764-44.963-29.85-90.508-41.868-135.369-12.059-45.017-21.953-89.041-29.408-130.851-7.6-42.636-12.628-82.768-14.939-119.283-2.389-37.745-1.87-71.614,1.541-100.666C5,986.928,7.409,969.744,10.184,952.844c2.757-16.791,5.949-33.759,9.487-50.434,7.02-33.084,15.673-66.289,25.718-98.694,9.951-32.1,21.509-64.189,34.352-95.375,12.746-30.949,27.063-61.751,42.554-91.551,15.4-29.632,32.337-58.978,50.327-87.223,17.928-28.148,37.33-55.868,57.668-82.391,20.311-26.489,42.039-52.413,64.579-77.053,22.554-24.656,46.461-48.616,71.059-71.212,24.667-22.661,50.61-44.484,77.108-64.865,26.637-20.488,54.47-40.006,82.726-58.014,28.462-18.139,58.041-35.183,87.914-50.659,30.145-15.617,61.324-30.016,92.67-42.8,15.79-6.439,31.934-12.594,47.984-18.294,16.145-5.734,32.635-11.164,49.012-16.14,16.481-5.007,33.3-9.692,49.986-13.922,16.8-4.26,33.928-8.177,50.905-11.642,17.1-3.49,34.516-6.618,51.772-9.3,17.38-2.7,35.071-5.018,52.584-6.892,17.64-1.888,35.587-3.376,53.342-4.423C1079.818.908,1098,.272,1115.976.073c4.717-.048,9.478-.073,14.149-.073,150.846,0,292.116,25.06,419.885,74.484,15.562,6.02,31.119,12.485,46.238,19.217,15.071,6.71,30.122,13.869,44.735,21.278,14.566,7.385,29.1,15.223,43.2,23.3,14.055,8.049,28.06,16.553,41.625,25.274,13.529,8.7,26.994,17.852,40.02,27.208,13,9.337,25.91,19.128,38.378,29.1,12.447,9.956,24.8,20.37,36.7,30.951,11.889,10.566,23.663,21.587,34.995,32.76,11.317,11.159,22.5,22.775,33.251,34.527s21.329,23.941,31.473,36.251,20.125,25.074,29.661,37.933,18.9,26.18,27.814,39.573,17.65,27.258,25.934,41.171c8.3,13.935,16.377,28.31,24.018,42.727,7.654,14.442,15.079,29.326,22.069,44.241,7,14.94,13.759,30.32,20.084,45.713,6.339,15.428,12.417,31.289,18.065,47.142,5.664,15.9,11.052,32.226,16.013,48.53,4.977,16.353,9.662,33.134,13.926,49.875,4.28,16.8,8.251,34.023,11.8,51.179,3.568,17.231,6.814,34.874,9.648,52.44,2.845,17.636,5.354,35.689,7.458,53.659,2.113,18.047,3.873,36.5,5.234,54.836,1.367,18.427,2.368,37.259,2.975,55.971,1.463,43.522,2.311,83.347,2.592,121.751.335,45.91-.17,90.4-1.5,132.24-1.522,47.884-4.183,94.258-7.911,137.833-2.024,23.66-4.408,47.038-7.085,69.484-2.812,23.568-6.027,46.8-9.559,69.047-3.693,23.265-7.839,46.143-12.322,68-4.67,22.764-9.844,45.082-15.376,66.336-5.748,22.081-12.046,43.635-18.719,64.063-6.919,21.181-14.439,41.764-22.353,61.178-8.185,20.078-17.026,39.485-26.278,57.681-9.549,18.781-19.808,36.805-30.491,53.573a541.264,541.264,0,0,1-35,48.851,469.286,469.286,0,0,1-39.79,43.52c-11.858,11.415-24.2,22.643-36.68,33.372-12.358,10.624-25.194,21.051-38.15,30.992-12.829,9.843-26.129,19.479-39.531,28.642-13.271,9.073-27.005,17.929-40.823,26.324-13.685,8.314-27.824,16.4-42.024,24.037-14.074,7.567-28.588,14.9-43.138,21.782-14.426,6.827-29.284,13.407-44.161,19.558-14.746,6.1-29.919,11.939-45.095,17.366-29.981,10.719-61.147,20.234-92.634,28.28-30.993,7.92-63.056,14.612-95.3,19.889-31.777,5.2-64.5,9.154-97.247,11.749C1304.427,2277.443,1271.293,2278.742,1238.282,2278.742ZM1040.809,41.955c-6.7,0-13.25.034-20.013.105-14.4.159-29.061.731-43.579,1.7-14.376.96-29,2.336-43.471,4.09a856.539,856.539,0,0,0-86.32,15.05c-28.24,6.415-56.839,14.394-85,23.717-27.738,9.182-55.7,19.878-83.1,31.793-27.046,11.761-54.164,24.975-80.6,39.276-26.156,14.149-52.237,29.682-77.519,46.168-25.078,16.353-49.924,34.006-73.848,52.468-23.8,18.367-47.214,37.941-69.588,58.176C191.044,483.376,69.765,702.02,45.033,914.367c-4,34.142-5.4,72.857-4.153,115.071a1316.881,1316.881,0,0,0,11.046,131.992c6.041,45.9,14.4,93.639,24.842,141.893,10.475,48.406,23,97.116,37.236,144.776,14.5,48.537,30.722,95.855,48.229,140.638,18.063,46.2,37.516,89.766,57.819,129.481,21.15,41.37,43.359,78.818,66.008,111.3,11.7,16.781,23.689,32.474,35.636,46.642a471.02,471.02,0,0,0,37.158,39.466c14.5,13.652,29.59,27.178,44.842,40.2,15.174,12.957,30.915,25.76,46.785,38.054,15.8,12.241,32.149,24.3,48.589,35.845,16.379,11.5,33.287,22.8,50.254,33.574a1328.705,1328.705,0,0,0,214.886,110.358,1302.446,1302.446,0,0,0,230.414,69.1c19.551,3.921,39.4,7.409,58.988,10.369,19.684,2.974,39.623,5.491,59.264,7.482,19.751,2,39.737,3.529,59.4,4.535,19.776,1.012,39.761,1.525,59.4,1.526h.021c31.746,0,63.645-1.34,94.812-3.983,31.556-2.676,63.149-6.754,93.9-12.121,31.172-5.441,62.259-12.343,92.4-20.513,30.584-8.291,60.973-18.1,90.322-29.157a960.174,960.174,0,0,0,329.122-208.142,480.266,480.266,0,0,0,38.871-42.292,551.846,551.846,0,0,0,34.465-47.288c10.575-16.216,20.771-33.616,30.305-51.716,9.249-17.557,18.128-36.256,26.392-55.576,8-18.712,15.649-38.519,22.724-58.871,6.838-19.671,13.333-40.395,19.3-61.6,5.759-20.455,11.186-41.906,16.128-63.756,4.76-21.043,9.2-43.029,13.2-65.347,3.841-21.439,7.379-43.77,10.516-66.371,3-21.646,5.722-44.13,8.079-66.828,4.388-42.264,7.7-86.929,9.834-132.757,1.912-41,2.935-83.991,3.041-127.777.093-38.1-.507-77.89-1.782-118.257-.684-20.6-1.806-41.212-3.335-61.273-1.519-19.943-3.483-39.9-5.837-59.306-2.34-19.3-5.13-38.591-8.292-57.342-3.146-18.654-6.748-37.286-10.7-55.378-3.938-18.008-8.335-35.98-13.07-53.417-4.71-17.348-9.888-34.66-15.389-51.456-5.474-16.709-11.417-33.362-17.665-49.5-6.216-16.054-12.91-32.048-19.894-47.539-6.95-15.414-14.378-30.75-22.078-45.583-7.667-14.769-15.815-29.448-24.217-43.627-8.363-14.114-17.215-28.135-26.311-41.674-9.051-13.472-18.592-26.836-28.359-39.722-9.72-12.824-19.935-25.532-30.361-37.771-10.377-12.181-21.25-24.232-32.318-35.821-11.021-11.538-22.537-22.935-34.23-33.872-11.646-10.894-23.791-21.636-36.1-31.926-97.424-81.469-215.356-143.876-350.522-185.488C1351.713,62.712,1202.385,41.959,1040.809,41.955Z" transform="translate(0.289 0.135)"/>
    <path id="Fill_4-3" data-name="Fill 4" class="cls-2" d="M1005.881,2004.794h-.057c-16.352,0-33-.45-49.486-1.338-16.38-.882-33.035-2.219-49.5-3.973a997.578,997.578,0,0,1-98.616-15.6c-32.435-6.8-65.189-15.338-97.352-25.378-31.923-9.965-63.952-21.625-95.2-34.655-31.114-12.975-62.12-27.586-92.157-43.429-30.007-15.827-59.691-33.221-88.227-51.7-28.6-18.52-56.663-38.528-83.406-59.465-26.893-21.054-53.034-43.505-77.7-66.728-11.375-10.716-22.589-21.942-33.331-33.364-10.628-11.3-21.082-23.1-31.07-35.075-9.884-11.847-19.583-24.187-28.829-36.677-9.15-12.359-18.1-25.2-26.612-38.168-8.426-12.841-16.64-26.148-24.415-39.552-7.7-13.28-15.187-27.016-22.241-40.825a917.235,917.235,0,0,1-38.043-85.034c-11.128-28.67-21.088-58.552-29.6-88.816-8.385-29.8-15.564-60.661-21.337-91.725-5.7-30.652-10.152-62.2-13.244-93.76C2.4,1088.315.6,1056.379.131,1024.618A1194.93,1194.93,0,0,1,16.522,809.5,1165.248,1165.248,0,0,1,70.794,603.137c24.411-66.83,54.736-129.881,90.131-187.4,8.941-14.531,18.328-28.894,27.9-42.69,9.644-13.9,19.731-27.6,29.982-40.706,10.336-13.219,21.113-26.193,32.033-38.562,11.018-12.481,22.475-24.68,34.053-36.259,10.737-10.738,21.982-21.328,33.421-31.475,11.331-10.051,23.159-19.938,35.155-29.388,11.881-9.36,24.254-18.548,36.776-27.309,12.4-8.678,25.285-17.169,38.287-25.238a878.206,878.206,0,0,1,80.661-44.292c27.407-13.244,56.13-25.39,85.369-36.1,28.846-10.566,58.853-19.977,89.188-27.97,30-7.9,60.992-14.6,92.119-19.9,30.862-5.256,62.542-9.258,94.16-11.9C901.465,1.33,933.533,0,965.337,0c34.021,0,68.5,1.519,102.477,4.515,34,3,68.215,7.538,101.689,13.495,33.613,5.981,67.193,13.516,99.808,22.4,32.859,8.948,65.44,19.453,96.835,31.224,31.732,11.9,62.945,25.347,92.771,39.974,15.051,7.382,30.029,15.2,44.519,23.244,14.6,8.1,29.1,16.65,43.094,25.4,14.106,8.822,28.079,18.092,41.532,27.552,13.573,9.545,26.975,19.534,39.833,29.691,12.981,10.254,25.766,20.96,38,31.821,12.349,10.965,24.47,22.384,36.026,33.942,9.3,9.3,18.451,19.082,27.193,29.071,8.652,9.885,17.141,20.241,25.229,30.779,8.007,10.431,15.843,21.329,23.29,32.391,7.371,10.949,14.563,22.357,21.376,33.908a727.817,727.817,0,0,1,37.111,71.986,813.133,813.133,0,0,1,29.757,76.91c8.607,26.042,16.212,53.318,22.6,81.071,6.29,27.306,11.557,55.726,15.654,84.469,4.038,28.331,7.033,57.637,8.9,87.1,1.847,29.107,2.64,59.044,2.356,88.977a1365.579,1365.579,0,0,1-25.408,246.9,1416.432,1416.432,0,0,1-68.813,239.571c-30.075,77.835-66.443,150.714-108.093,216.612-42.964,67.977-91.16,127.871-143.248,178.02-19.941,19.206-40.909,37.48-62.324,54.313a795.561,795.561,0,0,1-65.47,46.329,781.167,781.167,0,0,1-68.21,38.574c-22.858,11.445-46.593,21.891-70.545,31.047-23.571,9.01-47.954,17-72.473,23.75-24.154,6.648-49.049,12.26-74,16.682-24.593,4.359-49.864,7.67-75.11,9.843C1056.788,2003.7,1031.279,2004.792,1005.881,2004.794ZM942.6,28.16c-30.621,0-61.418,1.189-91.536,3.534-30.365,2.364-60.711,5.955-90.2,10.674-29.8,4.77-59.394,10.8-87.949,17.919C643.978,67.5,615.445,76,588.109,85.556c-27.766,9.7-54.942,20.712-80.772,32.725A801.281,801.281,0,0,0,431.5,158.565c-12.18,7.35-24.222,15.092-35.792,23.01-11.677,7.992-23.192,16.383-34.224,24.939-11.143,8.644-22.092,17.688-32.543,26.882-10.563,9.293-20.91,19-30.751,28.838-11.134,11.135-22.144,22.817-32.722,34.719C254.97,308.761,244.619,321.1,234.7,333.633c-9.848,12.439-19.531,25.393-28.782,38.5-9.187,13.021-18.193,26.544-26.769,40.2a975.08,975.08,0,0,0-86.39,175.005A1058.25,1058.25,0,0,0,40.813,778.662a1072.453,1072.453,0,0,0-15.7,199.053c.45,29.859,2.2,59.91,5.187,89.319,3.022,29.708,7.385,59.443,12.967,88.377,5.652,29.293,12.686,58.451,20.908,86.665,8.342,28.623,18.1,56.946,29.011,84.182a876.583,876.583,0,0,0,37.274,80.928c6.909,13.172,14.238,26.295,21.786,39,7.618,12.827,15.663,25.579,23.912,37.9,8.328,12.44,17.1,24.789,26.059,36.7,9.048,12.027,18.544,23.941,28.225,35.409,9.776,11.582,20.008,23.027,30.412,34.018,10.513,11.106,21.487,22.052,32.619,32.532,27.482,25.906,55.961,50.947,84.645,74.428,29,23.741,58.861,46.419,88.75,67.4,30.3,21.273,61.315,41.287,92.185,59.486,31.365,18.492,63.31,35.542,94.948,50.675,16.016,7.661,32.266,14.981,48.3,21.755,16.185,6.838,32.583,13.3,48.74,19.217,16.32,5.974,32.838,11.548,49.1,16.568,16.424,5.071,33.033,9.716,49.367,13.807,16.505,4.133,33.178,7.812,49.555,10.934,16.55,3.156,33.258,5.83,49.658,7.95,16.574,2.142,33.289,3.775,49.678,4.854,16.565,1.09,33.257,1.644,49.615,1.646h.073c22.032,0,44.145-1,65.724-2.978,21.932-2.008,43.914-5.077,65.336-9.122,21.752-4.108,43.513-9.333,64.679-15.53,21.5-6.294,42.974-13.763,63.827-22.2,21.182-8.57,42.3-18.372,62.78-29.135,20.8-10.934,41.506-23.158,61.538-36.333,20.352-13.385,40.572-28.119,60.1-43.793,19.835-15.922,39.506-33.255,58.466-51.518,104.951-101.112,193.077-235.052,254.852-387.341,60.79-149.861,93.69-311.193,95.141-466.555.269-28.832-.562-57.694-2.469-85.782-1.932-28.434-5.012-56.753-9.156-84.172-4.2-27.8-9.6-55.359-16.046-81.9-6.546-26.954-14.33-53.52-23.138-78.96-37.125-107.233-93.483-199.145-167.511-273.181-11.085-11.072-22.786-22.03-34.778-32.567-11.868-10.43-24.336-20.726-37.058-30.6-12.6-9.784-25.784-19.413-39.179-28.621-13.276-9.126-27.116-18.082-41.136-26.62-55.25-33.643-116.108-62.605-180.886-86.083A1170.068,1170.068,0,0,0,1149.9,45.946,1223.008,1223.008,0,0,0,942.608,28.16Z" transform="translate(163.306 169.421)"/>
    <path id="Fill_6-3" data-name="Fill 6" class="cls-2" d="M949.353,1681.192h-.042a394.554,394.554,0,0,1-45-2.694c-15.062-1.738-30.855-4.355-46.94-7.78-15.611-3.323-31.913-7.5-48.453-12.4-16.039-4.757-32.72-10.327-49.58-16.556-62.6-23.129-130.509-56.255-201.838-98.459-32.063-18.97-64.905-39.847-97.615-62.05-30.569-20.749-61.282-42.829-91.286-65.628-55.028-41.814-107.312-85.76-151.2-127.087-14.15-12.418-27.827-25.368-40.653-38.492-12.648-12.942-24.81-26.4-36.147-40.006-11.183-13.418-21.865-27.338-31.75-41.374-9.75-13.843-18.989-28.174-27.46-42.593-8.355-14.221-16.186-28.913-23.278-43.666-7-14.555-13.457-29.558-19.2-44.591-5.673-14.842-10.8-30.107-15.235-45.369-4.383-15.077-8.21-30.554-11.375-46-3.127-15.263-5.692-30.9-7.622-46.483C2.772,884.559,1.435,868.807.7,853.144c-.723-15.5-.871-31.314-.439-47.007C.693,790.6,1.7,774.771,3.257,759.088c6.133-61.738,20.978-124.2,44.122-185.661C54.649,554.12,62.832,534.7,71.7,515.708c8.821-18.894,18.534-37.822,28.868-56.259,10.3-18.376,21.465-36.707,33.187-54.487,11.706-17.755,24.247-35.385,37.278-52.4s26.881-33.853,41.141-50.005c14.3-16.2,29.364-32.108,44.777-47.3,15.485-15.258,31.7-30.154,48.184-44.274,16.594-14.211,33.875-27.985,51.364-40.94,17.63-13.059,35.9-25.606,54.316-37.293,18.591-11.8,37.783-23.016,57.041-33.334,19.474-10.434,39.506-20.212,59.537-29.062,20.284-8.962,41.079-17.2,61.806-24.479C675.773,15.466,765.051.046,854.553.046c.786,0,1.547,0,2.542,0,3.1-.033,6.254-.05,9.378-.05,27.073,0,54.314,1.274,80.965,3.786,26.3,2.48,52.683,6.226,78.4,11.136,25.423,4.854,50.823,10.962,75.494,18.155,24.428,7.122,48.734,15.48,72.243,24.841,23.317,9.284,46.413,19.78,68.648,31.195,22.092,11.342,43.864,23.863,64.71,37.217,20.752,13.294,41.083,27.73,60.428,42.907,19.3,15.141,38.073,31.379,55.8,48.266S1458,252.316,1474,270.794c16.037,18.516,31.353,38.026,45.522,57.986,14.227,20.041,27.641,41.018,39.867,62.348,12.3,21.46,23.7,43.792,33.867,66.377,10.255,22.768,19.515,46.345,27.525,70.075,8.089,23.965,15.1,48.674,20.838,73.441,5.8,25.051,10.451,50.78,13.809,76.475,3.4,26.026,5.567,52.665,6.436,79.177a917.191,917.191,0,0,1-8.879,157.114,1050.088,1050.088,0,0,1-35.3,158.676,1089.26,1089.26,0,0,1-59.771,153.519,1024.167,1024.167,0,0,1-82.285,141.642c-15.536,22.322-32.014,43.945-48.974,64.267-17.234,20.649-35.358,40.425-53.87,58.777a770.828,770.828,0,0,1-58.521,52.448,697.165,697.165,0,0,1-62.928,45.279,634.468,634.468,0,0,1-67.091,37.269c-11.523,5.5-23.309,10.672-35.03,15.369-11.849,4.747-23.954,9.138-35.979,13.051-12.166,3.958-24.58,7.534-36.9,10.628-12.468,3.132-25.18,5.858-37.785,8.1-12.759,2.271-25.76,4.111-38.643,5.469-13.039,1.375-26.319,2.294-39.47,2.731C956.822,1681.131,953.092,1681.192,949.353,1681.192ZM854.912,27.931c-85.682,0-171.3,14.5-254.488,43.111C580.469,77.9,560.446,85.667,540.91,94.113,521.6,102.46,502.29,111.684,483.5,121.53c-18.588,9.742-37.117,20.332-55.07,31.476-17.792,11.043-35.459,22.9-52.509,35.25C239.54,287.015,132.771,423.224,75.286,571.79,52.523,630.619,37.8,690.566,31.512,749.967c-6.521,61.647-3.916,122.605,7.741,181.181,2.987,15.01,6.616,30.066,10.788,44.752,4.224,14.874,9.117,29.767,14.543,44.264,5.5,14.686,11.688,29.37,18.4,43.643,6.806,14.461,14.334,28.89,22.375,42.885,8.148,14.182,17.047,28.311,26.451,41.992,9.53,13.865,19.837,27.648,30.634,40.965,10.947,13.5,22.7,26.893,34.925,39.8,12.4,13.091,25.629,26.046,39.323,38.5,44.718,42.252,95,85.972,145.425,126.433,61.46,49.32,122.318,93.287,180.882,130.678,68.837,43.951,133.917,78.375,193.433,102.318,16.206,6.52,32.233,12.349,47.635,17.327,15.915,5.144,31.6,9.52,46.63,13.007a449.734,449.734,0,0,0,45.267,8.178,350.726,350.726,0,0,0,43.546,2.839c3.47,0,6.809-.056,10.207-.171,75.728-2.451,151.358-23.477,224.79-62.495,17.381-9.236,34.828-19.6,51.856-30.8,16.726-11,33.467-23.091,49.758-35.929,16.016-12.621,31.99-26.276,47.479-40.586,15.247-14.087,30.393-29.15,45.017-44.771,43.669-46.645,84.078-99.573,120.1-157.314a1135.817,1135.817,0,0,0,90.464-178.468c24.8-61.923,43.543-124.6,55.7-186.3,12.412-62.969,17.735-123.8,15.823-180.8-6.548-198.761-91.39-382.268-238.9-516.719-146.088-133.157-339.995-206.49-546-206.49-2.933,0-5.786.014-8.721.044l-2.07,0Z" transform="translate(260.489 313.629)"/>
    <path id="Fill_8" data-name="Fill 8" class="cls-2" d="M315.348,493h-.02a178.505,178.505,0,0,1-34.163-3.528,259.679,259.679,0,0,1-35.474-9.8c-22.472-7.859-46.515-19.187-71.46-33.669a649.344,649.344,0,0,1-66.444-44.567A696.866,696.866,0,0,1,53.2,355.425,200.96,200.96,0,0,1,33.351,332.24a179.873,179.873,0,0,1-14.986-24.37,168.23,168.23,0,0,1-16.415-51.1,179.625,179.625,0,0,1-.071-52.261,210.488,210.488,0,0,1,14.2-51.037,239.929,239.929,0,0,1,15.592-30.884A257.423,257.423,0,0,1,51.7,93.8,265.4,265.4,0,0,1,102.9,45.012a244.244,244.244,0,0,1,62.45-32.928A209.524,209.524,0,0,1,234.707,0c5.051,0,10.154.2,15.167.587.831-.008,1.676-.013,2.51-.013a245.622,245.622,0,0,1,45.548,4.258A242.613,242.613,0,0,1,340.741,17.1a239.753,239.753,0,0,1,39.1,19.5,234.7,234.7,0,0,1,34.431,25.961,227.032,227.032,0,0,1,28.792,31.656,218.546,218.546,0,0,1,22.186,36.581,211.831,211.831,0,0,1,20.684,84.858,170.163,170.163,0,0,1-1.557,26.61C483.141,252,481.2,262.8,478.6,274.341a588.019,588.019,0,0,1-21.558,72.152,539.275,539.275,0,0,1-30.464,68.756,289.967,289.967,0,0,1-16.91,27.837,139.268,139.268,0,0,1-17.142,20.667,103.428,103.428,0,0,1-17.046,13.294,101.06,101.06,0,0,1-18.709,9.083,111.085,111.085,0,0,1-20.127,5.206A133.145,133.145,0,0,1,315.348,493ZM242.237,10.787c-96.008,0-187.529,61.131-222.564,148.66C-7.868,228.254,6.959,296.907,60.351,347.8,110.126,394.731,218.36,474.15,308.29,474.15c30.948,0,56.723-9.7,76.61-28.82,20.037-19.294,43.317-59.76,62.275-108.247,18.712-47.856,29.341-93.131,28.433-121.111-1.818-55.636-26.21-107.482-68.685-145.986C364.893,31.885,309.9,10.9,252.075,10.9c-.738,0-1.458,0-2.2.01C247.34,10.829,244.771,10.787,242.237,10.787Z" transform="translate(784 823)"/>
    <path id="Fill_10" data-name="Fill 10" class="cls-2" d="M247.774,356c-17.29,0-36.751-3.079-57.841-9.153a375.985,375.985,0,0,1-59.676-23.29c-9.49-4.609-19.011-9.652-28.3-14.99C93,303.415,84.22,297.972,75.874,292.389c-16.239-10.863-30.749-22.2-41.962-32.786a113.062,113.062,0,0,1-15.142-17.4A102.38,102.38,0,0,1,8.323,223.365,108.514,108.514,0,0,1,.016,182.638a146.572,146.572,0,0,1,5.1-39.475A204.516,204.516,0,0,1,20.06,104.076,258.725,258.725,0,0,1,42.465,67.415a275.3,275.3,0,0,1,27.478-32.2C81.767,23.394,96.693,14.371,114.306,8.4,130.737,2.826,149.163,0,169.072,0a230.822,230.822,0,0,1,43.747,4.323A253.447,253.447,0,0,1,255.6,16.6a232.1,232.1,0,0,1,38.9,19.21,178.306,178.306,0,0,1,32.092,25.106,109.42,109.42,0,0,1,17.8,23.8,150.368,150.368,0,0,1,12.364,29.172,201.934,201.934,0,0,1,7.13,32.976,249.267,249.267,0,0,1,2.1,35.212,275.219,275.219,0,0,1-3.912,43.5,258.84,258.84,0,0,1-10.655,41.671,204.314,204.314,0,0,1-17.029,37.035,140.79,140.79,0,0,1-23.035,29.591C296.1,348.555,274.707,356,247.774,356ZM160.719,4.595C125.57,4.594,96.759,14.853,77.4,34.26c-33.114,33.013-54.069,85.257-53.387,133.1.534,37.443,13.615,69.286,37.827,92.085,44.07,41.43,123.5,85.466,183.915,85.471h.012c24.888,0,45.084-7.292,60.027-21.674,30.6-29.433,49.954-83.4,50.51-140.836.469-48.474-13.022-90.034-37.014-114.023C281.728,30.825,216.52,4.595,160.719,4.595Z" transform="translate(840 879)"/>
    <path id="Fill_12" data-name="Fill 12" class="cls-2" d="M131.273,205h-.011a143.619,143.619,0,0,1-30.678-3.584A195.352,195.352,0,0,1,69.9,191.871a192.764,192.764,0,0,1-27.655-13.693A127.037,127.037,0,0,1,20.652,162.15,62.226,62.226,0,0,1,5.117,138.83a81.688,81.688,0,0,1-5.1-28.023A115.223,115.223,0,0,1,2.618,85.225a141.583,141.583,0,0,1,7.891-25.164A144.115,144.115,0,0,1,22.6,37.1,117.086,117.086,0,0,1,37.79,18.122,58.085,58.085,0,0,1,60.822,4.282,90.92,90.92,0,0,1,89.558,0a135.862,135.862,0,0,1,27.554,2.976,163.824,163.824,0,0,1,27.273,8.243A155.231,155.231,0,0,1,169.157,23.7a113.357,113.357,0,0,1,20.051,15.7c7.349,7.352,12.969,16.925,16.7,28.455a102.469,102.469,0,0,1,3.927,17.338,124.839,124.839,0,0,1,1.154,18.459,141.429,141.429,0,0,1-8.756,47.413c-5.761,15.473-14,28.641-23.821,38.083a52.973,52.973,0,0,1-20.946,12.142A86.276,86.276,0,0,1,131.273,205ZM96.149,8h0C80.843,8,59.561,11.024,45.1,25.424,25.592,44.937,11.8,82.545,12.3,114.849c.333,21.437,6.732,38.617,18.5,49.683,19.93,18.79,59.587,32.961,92.245,32.962,20.784,0,37.459-5.468,48.222-15.813,17.365-16.688,28.8-48.7,29.129-81.563.26-25.862-6.713-47.819-19.13-60.242C162.315,20.812,128.108,8,96.153,8Z" transform="translate(926 943)"/>
  </g>
</svg>
