<svg xmlns="http://www.w3.org/2000/svg" viewBox="0 0 18.466 15">
  <defs>
    <style>
      .cls-1 {
        fill: #fff;
      }
    </style>
  </defs>
  <g id="twitter-logo-silhouette" transform="translate(0 -0.018)">
    <path id="Shape" class="cls-1" d="M18.466,1.775a7.565,7.565,0,0,1-2.175.6A3.8,3.8,0,0,0,17.956.277a7.637,7.637,0,0,1-2.407.92A3.791,3.791,0,0,0,9.094,4.65,10.755,10.755,0,0,1,1.287.692,3.793,3.793,0,0,0,2.459,5.749,3.789,3.789,0,0,1,.743,5.273v.047A3.792,3.792,0,0,0,3.781,9.035a3.837,3.837,0,0,1-1,.133A3.636,3.636,0,0,1,2.07,9.1a3.79,3.79,0,0,0,3.538,2.631A7.6,7.6,0,0,1,.9,13.348,8.051,8.051,0,0,1,0,13.3,10.708,10.708,0,0,0,5.807,15,10.7,10.7,0,0,0,16.584,4.222l-.013-.49A7.565,7.565,0,0,0,18.466,1.775Z" transform="translate(0 0.018)"/>
  </g>
</svg>
