<svg id="youtube" xmlns="http://www.w3.org/2000/svg" viewBox="0 0 20 14">
  <defs>
    <style>
      .cls-1 {
        fill: #fff;
      }
    </style>
  </defs>
  <path id="youtube-2" data-name="youtube" class="cls-1" d="M10,14c-.063,0-6.272,0-7.814-.418A2.5,2.5,0,0,1,.418,11.814,26.192,26.192,0,0,1,0,7,26.192,26.192,0,0,1,.418,2.186,2.507,2.507,0,0,1,2.186.418C3.728,0,9.937,0,10,0s6.272,0,7.814.418a2.507,2.507,0,0,1,1.768,1.768A26.192,26.192,0,0,1,20,7a26.192,26.192,0,0,1-.418,4.814,2.5,2.5,0,0,1-1.768,1.768C16.272,14,10.062,14,10,14ZM8,4v6l5.2-3Z"/>
</svg>
